<svg xmlns="http://www.w3.org/2000/svg" viewBox="0 0 1280 720" width="100%">
  <defs>
    <pattern id="stipE1" width="16" height="16" patternUnits="userSpaceOnUse">
      <circle cx="3" cy="4" r="1.2" fill="#22301F" fill-opacity="0.09"/>
      <circle cx="11" cy="12" r="1" fill="#22301F" fill-opacity="0.07"/>
    </pattern>
    <pattern id="stipLeafE1" width="15" height="15" patternUnits="userSpaceOnUse">
      <circle cx="4" cy="4" r="1.4" fill="#F5EFE2" fill-opacity="0.2"/>
      <circle cx="11" cy="11" r="1.1" fill="#F5EFE2" fill-opacity="0.14"/>
    </pattern>
  </defs>

  <!-- sky -->
  <rect width="1280" height="720" fill="#F5EFE2"/>
  <rect width="1280" height="240" fill="#E7DCC3" fill-opacity="0.5"/>
  <circle cx="180" cy="110" r="52" fill="#E7DCC3"/>
  <circle cx="180" cy="110" r="38" fill="#F5EFE2" fill-opacity="0.8"/>

  <!-- ground beyond court: bare sand, fresh mulch beds -->
  <rect y="380" width="1280" height="60" fill="#E7DCC3"/>
  <rect y="380" width="1280" height="60" fill="url(#stipE1)"/>
  <ellipse cx="200" cy="424" rx="150" ry="16" fill="#CFC0A0" fill-opacity="0.8"/>
  <ellipse cx="640" cy="420" rx="180" ry="16" fill="#CFC0A0" fill-opacity="0.8"/>
  <ellipse cx="1100" cy="424" rx="150" ry="16" fill="#CFC0A0" fill-opacity="0.8"/>

  <!-- YEAR 0 VEGETATION: staked ghaf saplings + young shrub plugs -->
  <g>
    <g transform="translate(150,418)">
      <line x1="0" y1="0" x2="0" y2="-64" stroke="#22301F" stroke-width="4" stroke-linecap="round"/>
      <line x1="-14" y1="0" x2="-12" y2="-52" stroke="#CFC0A0" stroke-width="3"/>
      <line x1="14" y1="0" x2="12" y2="-52" stroke="#CFC0A0" stroke-width="3"/>
      <ellipse cx="0" cy="-76" rx="24" ry="15" fill="#2F6B4A"/>
      <ellipse cx="5" cy="-80" rx="13" ry="8" fill="#A9C6A0" fill-opacity="0.6"/>
    </g>
    <g transform="translate(420,414)">
      <line x1="0" y1="0" x2="0" y2="-58" stroke="#22301F" stroke-width="4" stroke-linecap="round"/>
      <line x1="-13" y1="0" x2="-11" y2="-46" stroke="#CFC0A0" stroke-width="3"/>
      <line x1="13" y1="0" x2="11" y2="-46" stroke="#CFC0A0" stroke-width="3"/>
      <ellipse cx="0" cy="-70" rx="22" ry="14" fill="#2F6B4A"/>
    </g>
    <g transform="translate(760,414)">
      <line x1="0" y1="0" x2="0" y2="-60" stroke="#22301F" stroke-width="4" stroke-linecap="round"/>
      <line x1="-13" y1="0" x2="-11" y2="-48" stroke="#CFC0A0" stroke-width="3"/>
      <line x1="13" y1="0" x2="11" y2="-48" stroke="#CFC0A0" stroke-width="3"/>
      <ellipse cx="0" cy="-72" rx="23" ry="14" fill="#2F6B4A"/>
      <ellipse cx="5" cy="-76" rx="12" ry="7" fill="#A9C6A0" fill-opacity="0.6"/>
    </g>
    <g transform="translate(1150,418)">
      <line x1="0" y1="0" x2="0" y2="-64" stroke="#22301F" stroke-width="4" stroke-linecap="round"/>
      <line x1="-14" y1="0" x2="-12" y2="-52" stroke="#CFC0A0" stroke-width="3"/>
      <line x1="14" y1="0" x2="12" y2="-52" stroke="#CFC0A0" stroke-width="3"/>
      <ellipse cx="0" cy="-76" rx="24" ry="15" fill="#2F6B4A"/>
    </g>
    <!-- shrub plugs (future screen) -->
    <g fill="#2F6B4A">
      <ellipse cx="80" cy="428" rx="16" ry="8"/><ellipse cx="280" cy="426" rx="14" ry="7"/>
      <ellipse cx="340" cy="430" rx="16" ry="8"/><ellipse cx="540" cy="426" rx="14" ry="7"/>
      <ellipse cx="600" cy="430" rx="15" ry="7"/><ellipse cx="700" cy="428" rx="14" ry="7"/>
      <ellipse cx="880" cy="426" rx="16" ry="8"/><ellipse cx="960" cy="430" rx="14" ry="7"/>
      <ellipse cx="1040" cy="426" rx="15" ry="7"/><ellipse cx="1230" cy="428" rx="16" ry="8"/>
    </g>
    <g fill="#7CC98F" fill-opacity="0.55">
      <ellipse cx="80" cy="425" rx="8" ry="4"/><ellipse cx="340" cy="427" rx="8" ry="4"/>
      <ellipse cx="880" cy="423" rx="8" ry="4"/><ellipse cx="1230" cy="425" rx="8" ry="4"/>
    </g>
  </g>

  <!-- high slatted canopy structure (brand new) -->
  <g>
    <rect x="200" y="128" width="880" height="18" fill="#C05A32"/>
    <g stroke="#C05A32" stroke-width="10">
      <line x1="228" y1="146" x2="228" y2="196"/><line x1="292" y1="146" x2="292" y2="196"/>
      <line x1="356" y1="146" x2="356" y2="196"/><line x1="420" y1="146" x2="420" y2="196"/>
      <line x1="484" y1="146" x2="484" y2="196"/><line x1="548" y1="146" x2="548" y2="196"/>
      <line x1="612" y1="146" x2="612" y2="196"/><line x1="676" y1="146" x2="676" y2="196"/>
      <line x1="740" y1="146" x2="740" y2="196"/><line x1="804" y1="146" x2="804" y2="196"/>
      <line x1="868" y1="146" x2="868" y2="196"/><line x1="932" y1="146" x2="932" y2="196"/>
      <line x1="996" y1="146" x2="996" y2="196"/><line x1="1052" y1="146" x2="1052" y2="196"/>
    </g>
    <rect x="200" y="192" width="880" height="12" fill="#C05A32" fill-opacity="0.8"/>
    <rect x="222" y="204" width="16" height="240" fill="#C05A32"/>
    <rect x="222" y="204" width="16" height="240" fill="#22301F" fill-opacity="0.12"/>
    <rect x="1042" y="204" width="16" height="240" fill="#C05A32"/>
    <rect x="634" y="204" width="12" height="232" fill="#C05A32" fill-opacity="0.85"/>
    <!-- light fittings -->
    <g>
      <line x1="400" y1="204" x2="400" y2="232" stroke="#22301F" stroke-width="4"/>
      <circle cx="400" cy="242" r="10" fill="#F5EFE2" stroke="#22301F" stroke-width="3"/>
      <line x1="880" y1="204" x2="880" y2="232" stroke="#22301F" stroke-width="4"/>
      <circle cx="880" cy="242" r="10" fill="#F5EFE2" stroke="#22301F" stroke-width="3"/>
    </g>
  </g>

  <!-- hoop -->
  <g>
    <path d="M900,440 C908,368 892,320 848,300" fill="none" stroke="#22301F" stroke-width="10" stroke-linecap="round"/>
    <rect x="782" y="252" width="80" height="60" fill="#F5EFE2" stroke="#22301F" stroke-width="5"/>
    <rect x="806" y="274" width="32" height="24" fill="none" stroke="#22301F" stroke-width="3.5"/>
    <line x1="794" y1="312" x2="846" y2="312" stroke="#22301F" stroke-width="6"/>
    <path d="M798,312 L806,340 L834,340 L842,312" fill="none" stroke="#22301F" stroke-width="2.5"/>
  </g>

  <!-- bleacher seat steps, left (new, crisp) -->
  <g>
    <rect x="30" y="470" width="250" height="34" fill="#E7DCC3" stroke="#22301F" stroke-opacity="0.25" stroke-width="2"/>
    <rect x="30" y="436" width="214" height="34" fill="#CFC0A0" stroke="#22301F" stroke-opacity="0.25" stroke-width="2"/>
    <rect x="30" y="402" width="178" height="34" fill="#E7DCC3" stroke="#22301F" stroke-opacity="0.25" stroke-width="2"/>
    <rect x="30" y="402" width="250" height="102" fill="url(#stipE1)"/>
  </g>

  <!-- parkour blocks, right (fresh) -->
  <g>
    <rect x="1010" y="452" width="110" height="60" rx="8" fill="#CFC0A0" stroke="#22301F" stroke-opacity="0.3" stroke-width="3"/>
    <rect x="1092" y="422" width="84" height="90" rx="8" fill="#E7DCC3" stroke="#22301F" stroke-opacity="0.3" stroke-width="3"/>
    <rect x="1160" y="468" width="100" height="44" rx="8" fill="#C05A32" fill-opacity="0.9" stroke="#22301F" stroke-opacity="0.3" stroke-width="3"/>
    <rect x="1010" y="422" width="250" height="90" fill="url(#stipE1)"/>
  </g>

  <!-- terracotta court (pristine) -->
  <rect y="504" width="1280" height="216" fill="#C05A32"/>
  <rect y="504" width="1280" height="216" fill="url(#stipE1)"/>
  <rect y="504" width="1280" height="8" fill="#F5EFE2" fill-opacity="0.55"/>
  <path d="M180,720 C420,600 860,600 1100,720" fill="none" stroke="#F5EFE2" stroke-width="6" stroke-opacity="0.9"/>
  <path d="M700,528 L920,528 L980,620 L740,620 Z" fill="none" stroke="#F5EFE2" stroke-width="5" stroke-opacity="0.9"/>
  <ellipse cx="860" cy="620" rx="70" ry="20" fill="none" stroke="#F5EFE2" stroke-width="5" stroke-opacity="0.9"/>
  <!-- nabta sparkle centre mark -->
  <g transform="translate(400,640)">
    <ellipse rx="64" ry="20" fill="#F5EFE2" fill-opacity="0.2"/>
    <path d="M0,-18 L12,-4 L52,0 L12,4 L0,18 L-12,4 L-52,0 L-12,-4 Z" fill="#F5EFE2"/>
    <path d="M0,-9 L6,-2 L26,0 L6,2 L0,9 L-6,2 L-26,0 L-6,-2 Z" fill="#7CC98F"/>
  </g>
  <!-- slat shadows -->
  <g stroke="#22301F" stroke-opacity="0.10" stroke-width="14">
    <line x1="-40" y1="540" x2="1320" y2="586"/><line x1="-40" y1="610" x2="1320" y2="656"/><line x1="-40" y1="680" x2="1320" y2="726"/>
  </g>

  <!-- opening-day teens trying the court -->
  <g fill="#22301F">
    <g transform="translate(560,560)">
      <circle cx="0" cy="-104" r="13"/>
      <path d="M0,-92 C9,-72 9,-48 4,-26 L16,14 L6,18 L-2,-14 L-14,18 L-24,14 L-10,-30 C-16,-54 -10,-76 0,-92 Z"/>
      <path d="M4,-84 L32,-104" stroke="#22301F" stroke-width="8" stroke-linecap="round"/>
      <circle cx="42" cy="-116" r="12" fill="#C05A32" stroke="#22301F" stroke-width="3"/>
    </g>
    <g transform="translate(700,590)">
      <circle cx="0" cy="-108" r="13"/>
      <path d="M0,-96 C9,-74 9,-50 4,-28 L15,16 L5,20 L-2,-14 L-13,20 L-23,16 L-10,-32 C-16,-56 -10,-78 0,-96 Z"/>
      <path d="M-4,-88 L-30,-70" stroke="#22301F" stroke-width="8" stroke-linecap="round"/>
    </g>
    <!-- teen inspecting parkour blocks -->
    <g transform="translate(1140,414)">
      <circle cx="0" cy="-30" r="10"/>
      <path d="M0,-21 C6,-8 6,6 3,18 L8,46 L2,48 L-2,20 L-7,48 L-13,46 L-7,12 C-10,-2 -7,-12 0,-21 Z"/>
    </g>
    <!-- visitor on bleachers -->
    <g transform="translate(140,402)"><circle cx="0" cy="-24" r="9"/><path d="M-8,-16 L8,-16 L10,4 L-10,4 Z"/></g>
  </g>
  <g fill="#22301F" fill-opacity="0.13">
    <ellipse cx="562" cy="584" rx="52" ry="11"/>
    <ellipse cx="700" cy="614" rx="54" ry="11"/>
  </g>

  <!-- sparkle accents -->
  <path d="M980,90 L983,101 L994,104 L983,107 L980,118 L977,107 L966,104 L977,101 Z" fill="#7BC6DD" fill-opacity="0.9"/>
  <path d="M120,660 L123,671 L134,674 L123,677 L120,688 L117,677 L106,674 L117,671 Z" fill="#7CC98F" fill-opacity="0.85"/>
</svg>
