<svg xmlns="http://www.w3.org/2000/svg" viewBox="0 0 1280 720" width="100%">
  <defs>
    <linearGradient id="skyE2" x1="0" y1="0" x2="0" y2="1">
      <stop offset="0" stop-color="#F5EFE2"/>
      <stop offset="1" stop-color="#E7DCC3"/>
    </linearGradient>
    <pattern id="stipE2" width="16" height="16" patternUnits="userSpaceOnUse">
      <circle cx="3" cy="5" r="1.1" fill="#22301F" opacity="0.07"/>
      <circle cx="11" cy="12" r="0.9" fill="#22301F" opacity="0.05"/>
    </pattern>
    <path id="sparkE2" d="M0,-9 C0.8,-2.6 2.6,-0.8 9,0 C2.6,0.8 0.8,2.6 0,9 C-0.8,2.6 -2.6,0.8 -9,0 C-2.6,-0.8 -0.8,-2.6 0,-9 Z"/>
  </defs>

  <!-- sky -->
  <rect width="1280" height="340" fill="url(#skyE2)"/>
  <circle cx="180" cy="90" r="44" fill="#F5EFE2" opacity="0.9"/>

  <!-- distant event lawn, establishing -->
  <path d="M0,306 C160,292 340,294 520,306 L520,344 L0,344 Z" fill="#A9C6A0" opacity="0.7"/>
  <path d="M0,322 C150,310 320,312 480,322 L480,346 L0,346 Z" fill="#2F6B4A" opacity="0.2"/>

  <!-- ground -->
  <rect y="340" width="1280" height="380" fill="#E7DCC3"/>
  <rect y="340" width="1280" height="380" fill="#F5EFE2" opacity="0.3"/>
  <rect y="340" width="1280" height="380" fill="url(#stipE2)"/>

  <!-- loop path across foreground -->
  <path d="M0,590 C300,568 700,562 1000,574 C1120,579 1220,586 1280,592 L1280,676 C1100,664 800,656 520,660 C320,663 120,672 0,682 Z" fill="#CFC0A0"/>
  <path d="M0,590 C300,568 700,562 1000,574 C1120,579 1220,586 1280,592 L1280,676 C1100,664 800,656 520,660 C320,663 120,672 0,682 Z" fill="url(#stipE2)"/>
  <path d="M0,636 C300,614 700,608 1000,618 C1120,622 1220,628 1280,634" stroke="#22301F" stroke-width="1.6" fill="none" opacity="0.22" stroke-dasharray="5 20"/>

  <!-- restrooms block behind cafe -->
  <rect x="1020" y="345" width="130" height="135" rx="3" fill="#E7DCC3"/>
  <rect x="1020" y="345" width="130" height="135" rx="3" fill="#22301F" opacity="0.1"/>
  <line x1="1016" y1="345" x2="1154" y2="345" stroke="#22301F" stroke-width="3" opacity="0.7"/>

  <!-- kiosk cafe, rammed earth -->
  <g>
    <rect x="700" y="310" width="320" height="170" rx="3" fill="#E7DCC3"/>
    <rect x="700" y="310" width="320" height="170" rx="3" fill="#C05A32" opacity="0.12"/>
    <g stroke="#22301F" opacity="0.14" stroke-width="2">
      <line x1="702" y1="342" x2="1018" y2="342"/>
      <line x1="702" y1="376" x2="1018" y2="376"/>
      <line x1="702" y1="410" x2="1018" y2="410"/>
      <line x1="702" y1="444" x2="1018" y2="444"/>
    </g>
    <g stroke="#C05A32" opacity="0.25" stroke-width="3">
      <line x1="702" y1="358" x2="1018" y2="358"/>
      <line x1="702" y1="428" x2="1018" y2="428"/>
    </g>
    <line x1="694" y1="310" x2="1026" y2="310" stroke="#22301F" stroke-width="4" opacity="0.85"/>
    <!-- service window + barista -->
    <rect x="736" y="352" width="110" height="76" rx="3" fill="#22301F" opacity="0.92"/>
    <rect x="736" y="352" width="110" height="76" rx="3" fill="#C05A32" opacity="0.3"/>
    <rect x="730" y="424" width="122" height="11" rx="3" fill="#C05A32"/>
    <g fill="#22301F">
      <circle cx="790" cy="380" r="9"/>
      <path d="M790,389 C802,391 806,403 806,424 L774,424 C774,403 778,391 790,389 Z"/>
    </g>
    <!-- doorway -->
    <rect x="900" y="368" width="62" height="112" rx="3" fill="#22301F" opacity="0.9"/>
    <rect x="904" y="374" width="54" height="102" rx="3" fill="#C05A32" opacity="0.35"/>
  </g>

  <!-- terracotta pergola apron -->
  <g>
    <rect x="390" y="322" width="316" height="16" rx="3" fill="#C05A32"/>
    <g fill="#C05A32" opacity="0.9">
      <rect x="408" y="314" width="10" height="32" rx="2"/>
      <rect x="444" y="314" width="10" height="32" rx="2"/>
      <rect x="480" y="314" width="10" height="32" rx="2"/>
      <rect x="516" y="314" width="10" height="32" rx="2"/>
      <rect x="552" y="314" width="10" height="32" rx="2"/>
      <rect x="588" y="314" width="10" height="32" rx="2"/>
      <rect x="624" y="314" width="10" height="32" rx="2"/>
      <rect x="660" y="314" width="10" height="32" rx="2"/>
    </g>
    <rect x="396" y="338" width="12" height="150" fill="#C05A32"/>
    <rect x="542" y="338" width="12" height="150" fill="#C05A32"/>
    <rect x="686" y="338" width="12" height="150" fill="#C05A32"/>
    <rect x="396" y="338" width="12" height="150" fill="#22301F" opacity="0.12"/>
  </g>

  <!-- YEAR 2: first vine climbing one post -->
  <g>
    <path d="M402,480 C412,440 396,400 406,356" stroke="#2F6B4A" stroke-width="4" fill="none" opacity="0.7"/>
    <circle cx="404" cy="420" r="8" fill="#A9C6A0" opacity="0.85"/>
    <circle cx="402" cy="372" r="7" fill="#7CC98F" opacity="0.7"/>
    <circle cx="410" cy="342" r="9" fill="#A9C6A0" opacity="0.8"/>
  </g>

  <!-- terrace tables under the apron -->
  <g>
    <ellipse cx="460" cy="520" rx="42" ry="12" fill="#F5EFE2" stroke="#22301F" stroke-width="2"/>
    <rect x="455" y="530" width="10" height="36" fill="#22301F" opacity="0.85"/>
    <ellipse cx="600" cy="532" rx="42" ry="12" fill="#F5EFE2" stroke="#22301F" stroke-width="2"/>
    <rect x="595" y="542" width="10" height="36" fill="#22301F" opacity="0.85"/>
    <ellipse cx="736" cy="524" rx="36" ry="10" fill="#F5EFE2" stroke="#22301F" stroke-width="1.8"/>
    <rect x="732" y="532" width="9" height="32" fill="#22301F" opacity="0.85"/>
    <!-- couple at first table -->
    <g fill="#22301F">
      <circle cx="418" cy="480" r="10"/>
      <path d="M418,489 C432,491 436,506 436,530 L400,530 C400,506 405,491 418,489 Z"/>
      <circle cx="506" cy="478" r="10"/>
      <path d="M506,487 C519,489 523,504 523,528 L488,528 C488,504 493,489 506,487 Z"/>
    </g>
    <rect x="440" y="508" width="9" height="11" rx="2" fill="#C05A32"/>
    <rect x="474" y="506" width="9" height="11" rx="2" fill="#7CC98F"/>
  </g>

  <!-- jogger with coffee on the loop -->
  <g fill="#22301F">
    <circle cx="912" cy="596" r="11"/>
    <path d="M912,606 C924,609 927,624 925,642 L901,642 C899,624 902,609 912,606 Z"/>
    <path d="M905,642 L894,678 M919,642 L930,674" stroke="#22301F" stroke-width="6.5" stroke-linecap="round"/>
    <path d="M922,616 L938,608" stroke="#22301F" stroke-width="6" stroke-linecap="round"/>
    <rect x="936" y="600" width="9" height="11" rx="2" fill="#C05A32"/>
  </g>

  <!-- YEAR 2 ghaf trees: adolescent, stakes removed -->
  <g>
    <path d="M150,600 C149,556 153,528 150,494" stroke="#22301F" stroke-width="6" fill="none"/>
    <circle cx="150" cy="472" r="44" fill="#A9C6A0" opacity="0.85"/>
    <circle cx="128" cy="456" r="26" fill="#2F6B4A" opacity="0.5"/>
    <circle cx="174" cy="458" r="24" fill="#2F6B4A" opacity="0.4"/>
  </g>
  <g>
    <path d="M330,580 C329,544 332,522 330,496" stroke="#22301F" stroke-width="5" fill="none"/>
    <circle cx="330" cy="478" r="34" fill="#A9C6A0" opacity="0.85"/>
    <circle cx="312" cy="464" r="20" fill="#2F6B4A" opacity="0.45"/>
  </g>
  <g>
    <path d="M1200,600 C1199,558 1203,532 1200,500" stroke="#22301F" stroke-width="6" fill="none"/>
    <circle cx="1200" cy="480" r="40" fill="#A9C6A0" opacity="0.85"/>
    <circle cx="1180" cy="464" r="24" fill="#2F6B4A" opacity="0.5"/>
    <circle cx="1222" cy="466" r="22" fill="#2F6B4A" opacity="0.4"/>
  </g>

  <!-- year 2 planting beds filling in -->
  <path d="M0,700 C120,668 260,670 380,700 C440,715 480,720 520,720 L0,720 Z" fill="#A9C6A0" opacity="0.65"/>
  <path d="M0,712 C110,690 230,692 340,712 C380,719 400,720 420,720 L0,720 Z" fill="#2F6B4A" opacity="0.3"/>
  <path d="M1060,704 C1140,680 1230,682 1280,698 L1280,720 L1020,720 Z" fill="#A9C6A0" opacity="0.6"/>
  <g fill="#7CC98F" opacity="0.75">
    <circle cx="90" cy="696" r="6"/><circle cx="300" cy="692" r="5"/><circle cx="1160" cy="702" r="5"/>
  </g>
  <circle cx="560" cy="686" r="7" fill="#7BC6DD" opacity="0.6"/>

  <!-- nabta sparkles (fixed across evolution) -->
  <use href="#sparkE2" transform="translate(1080,220) scale(1.1)" fill="#C05A32" opacity="0.85"/>
  <use href="#sparkE2" transform="translate(560,240) scale(0.8)" fill="#2F6B4A" opacity="0.6"/>
  <use href="#sparkE2" transform="translate(860,300) scale(0.7)" fill="#F5EFE2" opacity="0.95"/>
</svg>
