<svg xmlns="http://www.w3.org/2000/svg" viewBox="0 0 1280 720" width="100%">
  <defs>
    <pattern id="stip" width="16" height="16" patternUnits="userSpaceOnUse">
      <circle cx="3" cy="5" r="1.2" fill="#22301F" fill-opacity="0.07"/>
      <circle cx="11" cy="12" r="0.9" fill="#22301F" fill-opacity="0.05"/>
    </pattern>
    <path id="spark" d="M0 -11 L2.6 -2.6 L11 0 L2.6 2.6 L0 11 L-2.6 2.6 L-11 0 L-2.6 -2.6 Z"/>
  </defs>

  <!-- desert ground -->
  <rect width="1280" height="720" fill="#E7DCC3"/>
  <rect width="1280" height="720" fill="#F5EFE2" fill-opacity="0.35"/>
  <rect width="1280" height="720" fill="url(#stip)"/>

  <!-- wadi bioswale along the top edge -->
  <path d="M0 105 C220 55 420 145 640 110 C880 70 1060 145 1280 100 L1280 0 L0 0 Z" fill="#CFC0A0" fill-opacity="0.45"/>
  <path d="M0 72 C230 32 430 112 650 80 C880 47 1070 112 1280 70" fill="none" stroke="#4E8FA8" stroke-width="26" stroke-opacity="0.7" stroke-linecap="round"/>
  <path d="M0 72 C230 32 430 112 650 80 C880 47 1070 112 1280 70" fill="none" stroke="#4E8FA8" stroke-width="9" stroke-opacity="0.55"/>
  <g fill="#A9C6A0" fill-opacity="0.8">
    <circle cx="140" cy="92" r="9"/><circle cx="235" cy="60" r="7"/><circle cx="380" cy="88" r="10"/>
    <circle cx="540" cy="102" r="8"/><circle cx="700" cy="68" r="9"/><circle cx="860" cy="66" r="7"/>
    <circle cx="1010" cy="96" r="10"/><circle cx="1160" cy="86" r="8"/>
  </g>
  <g fill="#2F6B4A" fill-opacity="0.7">
    <circle cx="185" cy="80" r="6"/><circle cx="450" cy="98" r="6"/><circle cx="620" cy="86" r="7"/>
    <circle cx="930" cy="74" r="6"/><circle cx="1100" cy="92" r="6"/>
  </g>

  <!-- shaded loop: figure-eight segment crossing the lower field -->
  <path d="M-40 640 C240 540 420 670 640 612 C900 545 1010 655 1320 575" fill="none" stroke="#CFC0A0" stroke-width="62"/>
  <path d="M-40 445 C260 565 520 490 762 596" fill="none" stroke="#CFC0A0" stroke-width="44" stroke-opacity="0.85"/>
  <path d="M-40 640 C240 540 420 670 640 612 C900 545 1010 655 1320 575" fill="none" stroke="#22301F" stroke-opacity="0.12" stroke-width="2" stroke-dasharray="4 10"/>
  <!-- pergola slat shadows over the loop -->
  <g stroke="#C05A32" stroke-width="5" stroke-linecap="round" opacity="0.85">
    <line x1="70" y1="588" x2="112" y2="622"/><line x1="106" y1="576" x2="148" y2="610"/>
    <line x1="142" y1="566" x2="184" y2="600"/><line x1="178" y1="558" x2="220" y2="592"/>
    <line x1="980" y1="588" x2="1024" y2="616"/><line x1="1018" y1="580" x2="1062" y2="608"/>
    <line x1="1056" y1="572" x2="1100" y2="600"/><line x1="1094" y1="566" x2="1138" y2="594"/>
  </g>

  <!-- dune terraces (topographic play landform) -->
  <path d="M330 195 C470 130 720 145 835 235 C955 330 905 470 745 512 C560 558 360 522 292 402 C238 305 242 235 330 195 Z" fill="#E7DCC3"/>
  <path d="M330 195 C470 130 720 145 835 235 C955 330 905 470 745 512 C560 558 360 522 292 402 C238 305 242 235 330 195 Z" fill="none" stroke="#22301F" stroke-opacity="0.22" stroke-width="2"/>
  <path d="M380 235 C495 180 690 190 790 265 C880 335 845 445 715 478 C560 516 400 486 342 392 C300 318 308 268 380 235 Z" fill="#F5EFE2" fill-opacity="0.85"/>
  <path d="M380 235 C495 180 690 190 790 265 C880 335 845 445 715 478 C560 516 400 486 342 392 C300 318 308 268 380 235 Z" fill="none" stroke="#22301F" stroke-opacity="0.18" stroke-width="1.6"/>
  <path d="M440 280 C530 235 665 245 735 300 C800 352 770 425 665 448 C555 472 445 448 405 380 C375 328 385 305 440 280 Z" fill="#E7DCC3"/>
  <path d="M440 280 C530 235 665 245 735 300 C800 352 770 425 665 448 C555 472 445 448 405 380 C375 328 385 305 440 280 Z" fill="none" stroke="#22301F" stroke-opacity="0.16" stroke-width="1.4"/>

  <!-- rubber safety surfacing pools, warm tones -->
  <path d="M470 330 C540 292 640 300 690 342 C735 382 705 428 630 440 C550 452 470 432 448 388 C432 356 435 348 470 330 Z" fill="#C05A32" fill-opacity="0.5"/>
  <path d="M330 430 C380 400 460 408 490 440 C516 468 492 500 430 506 C368 512 318 494 312 466 C308 448 310 442 330 430 Z" fill="#C05A32" fill-opacity="0.32"/>
  <path d="M470 330 C540 292 640 300 690 342 C735 382 705 428 630 440 C550 452 470 432 448 388 C432 356 435 348 470 330 Z" fill="url(#stip)"/>

  <!-- embedded slides off the dune crest -->
  <path d="M560 320 C610 300 660 318 690 358 C712 388 705 415 680 430" fill="none" stroke="#C05A32" stroke-width="17" stroke-linecap="round"/>
  <path d="M540 315 C505 340 480 380 486 420" fill="none" stroke="#C05A32" stroke-width="14" stroke-linecap="round" stroke-opacity="0.85"/>
  <!-- climbing net panel -->
  <g stroke="#22301F" stroke-opacity="0.55" stroke-width="1.6">
    <path d="M500 350 L560 335 M505 365 L568 348 M512 380 L575 362 M520 395 L582 376"/>
    <path d="M500 350 L520 395 M520 345 L538 390 M540 340 L558 384 M560 335 L582 376"/>
  </g>
  <!-- transfer platforms -->
  <rect x="600" y="290" width="30" height="18" rx="4" fill="#F5EFE2" stroke="#22301F" stroke-opacity="0.3"/>
  <rect x="470" y="418" width="26" height="16" rx="4" fill="#F5EFE2" stroke="#22301F" stroke-opacity="0.3"/>

  <!-- wheelchair-accessible carousel -->
  <g transform="translate(905,330)">
    <circle r="52" fill="#CFC0A0"/>
    <circle r="52" fill="none" stroke="#22301F" stroke-opacity="0.3" stroke-width="2"/>
    <circle r="40" fill="#4E8FA8" fill-opacity="0.4"/>
    <g stroke="#22301F" stroke-opacity="0.5" stroke-width="2">
      <line x1="-40" y1="0" x2="40" y2="0"/><line x1="0" y1="-40" x2="0" y2="40"/>
      <line x1="-28" y1="-28" x2="28" y2="28"/><line x1="-28" y1="28" x2="28" y2="-28"/>
    </g>
    <circle r="6" fill="#C05A32"/>
    <path d="M-52 20 L-84 34 L-84 46 L-48 32 Z" fill="#CFC0A0"/>
  </g>

  <!-- family seating ring -->
  <path d="M400 545 A 300 220 0 0 0 900 480" fill="none" stroke="#22301F" stroke-opacity="0.45" stroke-width="6" stroke-dasharray="20 14" stroke-linecap="round"/>
  <g fill="#C05A32" fill-opacity="0.9">
    <rect x="430" y="548" width="26" height="9" rx="4" transform="rotate(14 443 552)"/>
    <rect x="560" y="572" width="26" height="9" rx="4" transform="rotate(4 573 576)"/>
    <rect x="700" y="566" width="26" height="9" rx="4" transform="rotate(-8 713 570)"/>
    <rect x="830" y="528" width="26" height="9" rx="4" transform="rotate(-18 843 532)"/>
  </g>

  <!-- shade sails with cast shadows -->
  <path d="M472 268 L640 232 L580 372 Z" fill="#22301F" fill-opacity="0.1"/>
  <path d="M455 250 L625 215 L565 355 Z" fill="#F5EFE2" fill-opacity="0.85"/>
  <path d="M455 250 L625 215 L565 355 Z" fill="none" stroke="#22301F" stroke-opacity="0.25" stroke-width="1.6"/>
  <path d="M615 300 L760 262 L722 398 Z" fill="#22301F" fill-opacity="0.1"/>
  <path d="M600 285 L745 248 L707 383 Z" fill="#C05A32" fill-opacity="0.42"/>
  <path d="M600 285 L745 248 L707 383 Z" fill="none" stroke="#22301F" stroke-opacity="0.22" stroke-width="1.4"/>

  <!-- ghaf clusters -->
  <g>
    <ellipse cx="255" cy="270" rx="46" ry="20" fill="#22301F" fill-opacity="0.1"/>
    <circle cx="235" cy="250" r="34" fill="#2F6B4A" fill-opacity="0.9"/>
    <circle cx="272" cy="238" r="26" fill="#A9C6A0" fill-opacity="0.85"/>
    <circle cx="212" cy="232" r="20" fill="#A9C6A0" fill-opacity="0.7"/>
  </g>
  <g>
    <ellipse cx="1075" cy="480" rx="52" ry="22" fill="#22301F" fill-opacity="0.1"/>
    <circle cx="1055" cy="458" r="38" fill="#2F6B4A" fill-opacity="0.9"/>
    <circle cx="1098" cy="444" r="28" fill="#A9C6A0" fill-opacity="0.85"/>
    <circle cx="1030" cy="436" r="20" fill="#A9C6A0" fill-opacity="0.7"/>
  </g>
  <g>
    <ellipse cx="180" cy="560" rx="40" ry="18" fill="#22301F" fill-opacity="0.1"/>
    <circle cx="165" cy="542" r="28" fill="#2F6B4A" fill-opacity="0.85"/>
    <circle cx="196" cy="530" r="20" fill="#A9C6A0" fill-opacity="0.8"/>
  </g>

  <!-- people from above: dot heads with shoulder ellipses -->
  <g fill="#22301F">
    <g><ellipse cx="590" cy="360" rx="6" ry="4"/><circle cx="590" cy="358" r="3"/></g>
    <g><ellipse cx="655" cy="410" rx="5" ry="3.4"/><circle cx="655" cy="408" r="2.5"/></g>
    <g><ellipse cx="520" cy="400" rx="5" ry="3.4"/><circle cx="520" cy="398" r="2.5"/></g>
    <g><ellipse cx="470" cy="560" rx="6" ry="4"/><circle cx="470" cy="558" r="3"/></g>
    <g><ellipse cx="760" cy="560" rx="6" ry="4"/><circle cx="760" cy="558" r="3"/></g>
    <g><ellipse cx="350" cy="620" rx="6" ry="4"/><circle cx="350" cy="618" r="3"/></g>
    <g><ellipse cx="392" cy="612" rx="4.4" ry="3"/><circle cx="392" cy="610" r="2.2"/></g>
  </g>
  <!-- wheelchair user from above: head dot inside wheel ring, on carousel ramp -->
  <g transform="translate(838,364)">
    <circle r="8" fill="none" stroke="#22301F" stroke-width="2.4"/>
    <circle r="3" fill="#22301F"/>
  </g>

  <!-- nabta sparkles -->
  <use href="#spark" x="0" y="0" transform="translate(985,170)" fill="#7CC98F"/>
  <use href="#spark" x="0" y="0" transform="translate(150,410) scale(0.7)" fill="#7BC6DD"/>
  <use href="#spark" x="0" y="0" transform="translate(700,660) scale(0.6)" fill="#7CC98F"/>
</svg>
