<svg xmlns="http://www.w3.org/2000/svg" viewBox="0 0 1280 720" width="100%">
  <defs>
    <pattern id="stipC" width="18" height="18" patternUnits="userSpaceOnUse">
      <circle cx="5" cy="6" r="1.5" fill="#2F6B4A" fill-opacity="0.18"/>
      <circle cx="14" cy="14" r="1.1" fill="#22301F" fill-opacity="0.07"/>
    </pattern>
    <pattern id="stipCS" width="16" height="16" patternUnits="userSpaceOnUse">
      <circle cx="4" cy="5" r="1.2" fill="#22301F" fill-opacity="0.06"/>
    </pattern>
    <path id="sparkC" d="M0,-10 L2.2,-2.2 L10,0 L2.2,2.2 L0,10 L-2.2,2.2 L-10,0 L-2.2,-2.2 Z"/>
    <g id="ghafC">
      <path d="M-5,0 L-3,-64 L3,-64 L5,0 Z" fill="#22301F"/>
      <path d="M-3,-60 C-22,-70 -36,-62 -46,-76" stroke="#22301F" stroke-width="3.5" fill="none"/>
      <path d="M3,-60 C20,-72 34,-64 44,-78" stroke="#22301F" stroke-width="3.5" fill="none"/>
      <ellipse cx="0" cy="-94" rx="66" ry="22" fill="#2F6B4A"/>
      <ellipse cx="-28" cy="-104" rx="38" ry="14" fill="#A9C6A0" fill-opacity="0.7"/>
      <ellipse cx="30" cy="-88" rx="34" ry="12" fill="#A9C6A0" fill-opacity="0.5"/>
    </g>
    <g id="walkerC" fill="#22301F">
      <circle cx="0" cy="-46" r="8"/>
      <path d="M-7,-38 C-9,-16 -8,0 -6,22 L-2,22 L0,-6 L2,-6 L4,22 L8,22 C9,0 8,-16 7,-38 Z"/>
    </g>
  </defs>

  <!-- sky -->
  <rect x="0" y="0" width="1280" height="720" fill="#F5EFE2"/>
  <rect x="0" y="0" width="1280" height="180" fill="#7BC6DD" fill-opacity="0.13"/>
  <rect x="0" y="160" width="1280" height="130" fill="#E7DCC3" fill-opacity="0.5"/>
  <circle cx="230" cy="112" r="44" fill="#F5EFE2"/>
  <circle cx="230" cy="112" r="34" fill="#E7DCC3" fill-opacity="0.9"/>

  <!-- rim canopy and loop edge behind the bowl -->
  <ellipse cx="120" cy="316" rx="150" ry="46" fill="#2F6B4A" fill-opacity="0.45"/>
  <ellipse cx="420" cy="308" rx="180" ry="40" fill="#2F6B4A" fill-opacity="0.4"/>
  <ellipse cx="820" cy="312" rx="200" ry="44" fill="#2F6B4A" fill-opacity="0.42"/>
  <ellipse cx="1180" cy="318" rx="170" ry="48" fill="#2F6B4A" fill-opacity="0.48"/>
  <ellipse cx="620" cy="322" rx="220" ry="26" fill="#A9C6A0" fill-opacity="0.5"/>
  <!-- pergola hints on the far rim -->
  <g fill="#C05A32">
    <rect x="536" y="300" width="6" height="40"/><rect x="596" y="300" width="6" height="40"/>
    <rect x="528" y="292" width="82" height="7"/>
    <rect x="530" y="284" width="10" height="6"/><rect x="550" y="283" width="10" height="6"/><rect x="570" y="282" width="10" height="6"/><rect x="590" y="283" width="10" height="6"/>
  </g>
  <!-- rim path -->
  <path d="M0,340 C300,326 980,326 1280,340 L1280,358 C980,346 300,346 0,358 Z" fill="#CFC0A0"/>
  <path d="M0,340 C300,326 980,326 1280,340 L1280,358 C980,346 300,346 0,358 Z" fill="url(#stipCS)"/>

  <!-- kiosk carts at the rim -->
  <g transform="translate(120,318)">
    <rect x="0" y="0" width="52" height="30" rx="4" fill="#C05A32"/>
    <rect x="-6" y="-11" width="64" height="11" rx="5" fill="#E7DCC3"/>
    <rect x="-6" y="-11" width="64" height="4.5" rx="2" fill="#C05A32" fill-opacity="0.6"/>
    <circle cx="11" cy="33" r="5.5" fill="#22301F"/><circle cx="41" cy="33" r="5.5" fill="#22301F"/>
  </g>
  <g transform="translate(1092,320)">
    <rect x="0" y="0" width="52" height="30" rx="4" fill="#C05A32" fill-opacity="0.92"/>
    <rect x="-6" y="-11" width="64" height="11" rx="5" fill="#F5EFE2"/>
    <rect x="-6" y="-11" width="64" height="4.5" rx="2" fill="#2F6B4A" fill-opacity="0.55"/>
    <circle cx="11" cy="33" r="5.5" fill="#22301F"/><circle cx="41" cy="33" r="5.5" fill="#22301F"/>
  </g>

  <!-- bowl lawn -->
  <path d="M0,358 C300,346 980,346 1280,358 L1280,720 L0,720 Z" fill="#A9C6A0"/>
  <path d="M0,392 C320,362 960,362 1280,392 L1280,720 L0,720 Z" fill="#2F6B4A" fill-opacity="0.5"/>
  <path d="M0,470 C340,420 940,420 1280,470 L1280,720 L0,720 Z" fill="#2F6B4A" fill-opacity="0.35"/>
  <path d="M0,358 C300,346 980,346 1280,358 L1280,720 L0,720 Z" fill="url(#stipC)"/>
  <ellipse cx="640" cy="560" rx="520" ry="150" fill="#7CC98F" fill-opacity="0.18"/>

  <!-- edge trees leaning into frame -->
  <use href="#ghafC" transform="translate(90,420) scale(1.9)"/>
  <use href="#ghafC" transform="translate(1210,440) scale(2.2)"/>
  <use href="#ghafC" transform="translate(980,372) scale(0.95)"/>

  <!-- picnic blankets -->
  <g>
    <path d="M540,520 L680,508 L716,556 L566,572 Z" fill="#C05A32" fill-opacity="0.85"/>
    <path d="M540,520 L680,508 L716,556 L566,572 Z" fill="#F5EFE2" fill-opacity="0.15"/>
    <path d="M556,534 L696,522 M548,548 L706,536" stroke="#F5EFE2" stroke-width="3" stroke-opacity="0.5"/>
    <path d="M780,590 L920,580 L952,636 L806,648 Z" fill="#E7DCC3"/>
    <path d="M796,604 L936,594 M788,620 L944,610" stroke="#C05A32" stroke-width="3" stroke-opacity="0.45"/>
    <path d="M330,600 L450,592 L478,646 L352,656 Z" fill="#7CC98F" fill-opacity="0.55"/>
    <circle cx="626" cy="540" r="9" fill="#E7DCC3"/><circle cx="648" cy="536" r="7" fill="#C05A32" fill-opacity="0.7"/>
    <circle cx="864" cy="610" r="9" fill="#C05A32" fill-opacity="0.8"/><circle cx="886" cy="616" r="7" fill="#2F6B4A" fill-opacity="0.6"/>
  </g>

  <!-- picnic people: seated silhouettes -->
  <g fill="#22301F">
    <g transform="translate(590,528)">
      <circle cx="0" cy="-26" r="7"/>
      <path d="M-8,-20 C-9,-8 -8,-2 -6,2 L14,4 L14,8 L-10,7 C-13,0 -12,-12 -8,-20 Z"/>
    </g>
    <g transform="translate(676,528) scale(-1,1)">
      <circle cx="0" cy="-26" r="7"/>
      <path d="M-8,-20 C-9,-8 -8,-2 -6,2 L14,4 L14,8 L-10,7 C-13,0 -12,-12 -8,-20 Z"/>
    </g>
    <g transform="translate(842,600) scale(0.95)">
      <circle cx="0" cy="-26" r="7"/>
      <path d="M-8,-20 C-9,-8 -8,-2 -6,2 L14,4 L14,8 L-10,7 C-13,0 -12,-12 -8,-20 Z"/>
    </g>
  </g>

  <!-- morning yoga row -->
  <g fill="#22301F">
    <rect x="180" y="500" width="64" height="8" rx="4" fill="#7BC6DD" fill-opacity="0.75"/>
    <rect x="268" y="504" width="64" height="8" rx="4" fill="#C05A32" fill-opacity="0.7"/>
    <rect x="356" y="508" width="64" height="8" rx="4" fill="#7CC98F" fill-opacity="0.7"/>
    <!-- tree pose -->
    <g transform="translate(212,498)">
      <circle cx="0" cy="-58" r="7.5"/>
      <path d="M-5,-51 L-4,-6 L0,-6 L1,-30 L4,-14 L2,-6 L7,-6 L7,-34 L5,-51 Z"/>
      <path d="M-5,-48 C-14,-40 -16,-32 -14,-28 L-4,-38 Z"/>
      <path d="M5,-48 C14,-40 16,-32 14,-28 L4,-38 Z"/>
    </g>
    <!-- warrior pose -->
    <g transform="translate(300,502)">
      <circle cx="0" cy="-52" r="7.5"/>
      <path d="M-4,-45 L-16,-6 L-10,-6 L0,-30 L12,-6 L18,-6 L4,-45 Z"/>
      <path d="M-26,-42 L26,-42 L26,-37 L-26,-37 Z"/>
    </g>
    <!-- forward fold -->
    <g transform="translate(388,506)">
      <path d="M-8,-6 L-4,-40 C0,-52 10,-52 12,-40 L18,-30 C20,-24 14,-22 12,-26 L6,-36 L2,-6 Z"/>
      <circle cx="14" cy="-33" r="6.5"/>
    </g>
  </g>

  <!-- kids running with a kite -->
  <g fill="#22301F">
    <g transform="translate(996,560) scale(0.7)">
      <circle cx="0" cy="-48" r="8.5"/>
      <path d="M-6,-40 L-18,4 L-11,4 L-1,-22 L10,0 L17,-2 L6,-40 Z"/>
      <path d="M5,-36 L24,-52 L27,-47 L8,-30 Z"/>
    </g>
    <g transform="translate(1058,584) scale(0.6)">
      <circle cx="0" cy="-48" r="8.5"/>
      <path d="M-6,-40 L-20,2 L-13,2 L-2,-22 L12,-2 L19,-6 L6,-40 Z"/>
    </g>
  </g>
  <path d="M1012,516 C1040,470 1070,440 1096,418" stroke="#22301F" stroke-width="1.6" fill="none" stroke-opacity="0.6"/>
  <path d="M1096,398 L1112,418 L1096,438 L1080,418 Z" fill="#C05A32"/>
  <path d="M1096,398 L1112,418 L1096,438 L1080,418 Z" fill="#F5EFE2" fill-opacity="0.25"/>

  <!-- strolling figures on the rim -->
  <use href="#walkerC" transform="translate(500,352) scale(0.5)"/>
  <use href="#walkerC" transform="translate(742,350) scale(0.46)"/>
  <use href="#walkerC" transform="translate(700,352) scale(0.5)"/>

  <!-- foreground grass blades -->
  <g stroke="#2F6B4A" stroke-width="3" stroke-linecap="round" stroke-opacity="0.6">
    <path d="M120,700 C124,684 122,676 118,668"/>
    <path d="M148,706 C150,690 154,682 158,676"/>
    <path d="M1130,702 C1134,686 1132,678 1128,670"/>
    <path d="M1162,708 C1164,692 1168,684 1172,678"/>
    <path d="M640,712 C644,698 642,690 638,684"/>
  </g>

  <!-- sparkles -->
  <use href="#sparkC" transform="translate(1060,150) scale(0.9)" fill="#7CC98F"/>
  <use href="#sparkC" transform="translate(430,120) scale(0.55)" fill="#7BC6DD"/>
  <use href="#sparkC" transform="translate(760,470) scale(0.6)" fill="#F5EFE2" fill-opacity="0.9"/>
</svg>
