<?xml version="1.0" encoding="UTF-8"?>
<svg xmlns="http://www.w3.org/2000/svg" viewBox="0 0 1200 520" width="100%" height="100%">
  <defs>
    <linearGradient id="brand" x1="120" y1="0" x2="1080" y2="0" gradientUnits="userSpaceOnUse">
      <stop offset="0%" stop-color="#7CC98F"/><stop offset="100%" stop-color="#7BC6DD"/>
    </linearGradient>
    <path id="sparkle" d="M0,-20 C2.4,-6.5 6.5,-2.4 20,0 C6.5,2.4 2.4,6.5 0,20 C-2.4,6.5 -6.5,2.4 -20,0 C-6.5,-2.4 -2.4,-6.5 0,-20 Z"/>
  </defs>
  <rect width="1200" height="520" fill="#F5EFE2"/>
  <rect x="20" y="20" width="1160" height="480" fill="none" stroke="#22301F" stroke-width="1.5"/>
  <rect x="0" y="470" width="1200" height="50" fill="#E7DCC3" opacity="0.95"/>
  <path d="M0,467 L1200,467" stroke="url(#brand)" stroke-width="3" stroke-linecap="round"/>
  <g opacity="0.34" fill="#22301F">
    <circle cx="44" cy="480" r="1.2"/><circle cx="69" cy="492" r="1.5"/><circle cx="95" cy="479" r="1.1"/>
    <circle cx="1020" cy="489" r="1.2"/><circle cx="1046" cy="478" r="1.5"/><circle cx="1082" cy="491" r="1.1"/>
  </g>
  <g transform="translate(98 96) scale(0.9)"><use href="#sparkle" fill="#7CC98F"/></g>
  <text x="52" y="56" font-family="IBM Plex Mono, monospace" font-size="14" letter-spacing="2" fill="#22301F">04 USERS &amp; COMMUNITY</text>
  <g transform="translate(600 268)">
    <path d="M-360,72 C-250,6 -138,-16 -22,-20 C94,-24 200,-4 320,62" fill="none" stroke="#CFC0A0" stroke-width="44" stroke-linecap="round"/>
    <path d="M-360,72 C-250,6 -138,-16 -22,-20 C94,-24 200,-4 320,62" fill="none" stroke="#2F6B4A" stroke-width="2.4" stroke-linecap="round"/>
    <g transform="translate(-246 8)" stroke="#22301F" stroke-width="1.7" stroke-linecap="round" stroke-linejoin="round" fill="none">
      <circle cx="0" cy="-28" r="11" fill="#E7DCC3"/><path d="M0,-16 L0,18"/><path d="M-14,-2 L14,-2"/><path d="M0,18 L-10,42"/><path d="M0,18 L10,42"/>
    </g>
    <g transform="translate(-140 -10)" stroke="#22301F" stroke-width="1.5" stroke-linecap="round" stroke-linejoin="round" fill="none">
      <circle cx="0" cy="-18" r="8" fill="#E7DCC3"/><path d="M0,-10 L0,12"/><path d="M-8,2 L8,2"/><path d="M0,12 L-7,28"/><path d="M0,12 L7,28"/>
    </g>
    <g transform="translate(-24 2)" stroke="#22301F" stroke-width="1.7" stroke-linecap="round" stroke-linejoin="round" fill="none">
      <circle cx="0" cy="-30" r="11" fill="#E7DCC3"/><path d="M0,-18 L0,16"/><path d="M-13,-2 L13,-2"/><path d="M0,16 L-7,40"/><path d="M0,16 L7,40"/>
      <path d="M-18,7 C-5,10 5,10 18,7" fill="none"/>
    </g>
    <g transform="translate(118 6)" stroke="#22301F" stroke-width="1.6" stroke-linecap="round" stroke-linejoin="round" fill="none">
      <circle cx="0" cy="-26" r="10" fill="#E7DCC3"/><path d="M0,-14 L0,18"/><path d="M-12,0 L12,0"/><path d="M0,18 L-10,42"/><path d="M0,18 L10,42"/>
    </g>
    <g transform="translate(230 16)" stroke="#22301F" stroke-width="1.6" stroke-linecap="round" stroke-linejoin="round" fill="none">
      <circle cx="0" cy="-28" r="10" fill="#E7DCC3"/><path d="M0,-16 L0,16"/><path d="M-10,-2 L10,-2"/><path d="M0,16 L-10,40"/><path d="M0,16 L10,40"/>
    </g>
    <g transform="translate(318 26)" stroke="#22301F" stroke-width="1.6" stroke-linecap="round" stroke-linejoin="round" fill="none">
      <circle cx="0" cy="-18" r="8" fill="#E7DCC3"/><path d="M0,-10 L0,12"/><path d="M-8,2 L8,2"/><path d="M0,12 L-8,30"/><path d="M0,12 L8,30"/>
    </g>
    <g stroke="#22301F" stroke-width="1.2" fill="#A9C6A0" fill-opacity="0.2">
      <path d="M-300,63 C-292,55 -284,55 -276,63 C-284,73 -292,73 -300,63 Z"/>
      <path d="M-88,56 C-80,48 -72,48 -64,56 C-72,66 -80,66 -88,56 Z"/>
      <path d="M38,60 C46,52 54,52 62,60 C54,70 46,70 38,60 Z"/>
      <path d="M166,68 C174,60 182,60 190,68 C182,78 174,78 166,68 Z"/>
    </g>
  </g>
</svg>
