<?xml version="1.0" encoding="UTF-8"?>
<svg xmlns="http://www.w3.org/2000/svg" viewBox="0 0 1200 520" width="100%" height="100%">
  <defs>
    <linearGradient id="brand" x1="120" y1="0" x2="1080" y2="0" gradientUnits="userSpaceOnUse">
      <stop offset="0%" stop-color="#7CC98F"/>
      <stop offset="100%" stop-color="#7BC6DD"/>
    </linearGradient>
    <path id="sparkle" d="M0,-20 C2.4,-6.5 6.5,-2.4 20,0 C6.5,2.4 2.4,6.5 0,20 C-2.4,6.5 -6.5,2.4 -20,0 C-6.5,-2.4 -2.4,-6.5 0,-20 Z"/>
  </defs>
  <rect width="1200" height="520" fill="#F5EFE2"/>
  <rect x="20" y="20" width="1160" height="480" fill="none" stroke="#22301F" stroke-width="1.5"/>
  <rect x="0" y="470" width="1200" height="50" fill="#E7DCC3" opacity="0.95"/>
  <path d="M0,467 L1200,467" stroke="url(#brand)" stroke-width="3" stroke-linecap="round"/>
  <g opacity="0.38" fill="#22301F">
    <circle cx="52" cy="483" r="1.4"/><circle cx="68" cy="489" r="1.2"/><circle cx="85" cy="476" r="1.5"/><circle cx="104" cy="492" r="1.1"/>
    <circle cx="150" cy="480" r="1.6"/><circle cx="178" cy="490" r="1.2"/><circle cx="206" cy="477" r="1.4"/><circle cx="232" cy="491" r="1.1"/>
    <circle cx="284" cy="484" r="1.4"/><circle cx="301" cy="492" r="1.2"/><circle cx="322" cy="476" r="1.5"/><circle cx="345" cy="489" r="1.1"/>
    <circle cx="1010" cy="483" r="1.4"/><circle cx="1030" cy="490" r="1.2"/><circle cx="1048" cy="477" r="1.5"/><circle cx="1068" cy="491" r="1.1"/>
    <circle cx="1108" cy="484" r="1.4"/><circle cx="1130" cy="492" r="1.2"/><circle cx="1150" cy="476" r="1.5"/>
  </g>
  <g transform="translate(1030 85) scale(0.95)">
    <use href="#sparkle" fill="#C05A32"/>
  </g>
  <text x="52" y="56" font-family="IBM Plex Mono, monospace" font-size="14" letter-spacing="2" fill="#22301F">01 EXECUTIVE SUMMARY</text>
  <g transform="translate(600 270)">
    <path d="M-170,0 C-170,-82 -95,-132 -20,-132 C55,-132 122,-87 140,-18 C157,48 126,114 60,138 C-10,164 -96,136 -133,86 C-175,30 -146,-62 -70,-96 C17,-134 127,-95 171,-2 C214,88 168,194 73,214 C-18,232 -103,181 -145,100" fill="none" stroke="#CFC0A0" stroke-width="54" stroke-linecap="round" stroke-linejoin="round"/>
    <path d="M-170,0 C-170,-82 -95,-132 -20,-132 C55,-132 122,-87 140,-18 C157,48 126,114 60,138 C-10,164 -96,136 -133,86 C-175,30 -146,-62 -70,-96 C17,-134 127,-95 171,-2 C214,88 168,194 73,214 C-18,232 -103,181 -145,100" fill="none" stroke="#2F6B4A" stroke-width="3"/>
    <g fill="#A9C6A0" fill-opacity="0.55" stroke="#22301F" stroke-width="1">
      <circle cx="-210" cy="-10" r="8"/><circle cx="-170" cy="-112" r="8"/><circle cx="-55" cy="-160" r="8"/><circle cx="74" cy="-154" r="8"/>
      <circle cx="197" cy="-94" r="8"/><circle cx="242" cy="22" r="8"/><circle cx="207" cy="138" r="8"/><circle cx="89" cy="218" r="8"/>
      <circle cx="-46" cy="210" r="8"/><circle cx="-176" cy="150" r="8"/>
    </g>
    <g fill="#22301F">
      <circle cx="-210" cy="-10" r="2"/><circle cx="-170" cy="-112" r="2"/><circle cx="-55" cy="-160" r="2"/><circle cx="74" cy="-154" r="2"/>
      <circle cx="197" cy="-94" r="2"/><circle cx="242" cy="22" r="2"/><circle cx="207" cy="138" r="2"/><circle cx="89" cy="218" r="2"/>
      <circle cx="-46" cy="210" r="2"/><circle cx="-176" cy="150" r="2"/>
    </g>
  </g>
</svg>
