<?xml version="1.0" encoding="UTF-8"?>
<svg xmlns="http://www.w3.org/2000/svg" viewBox="0 0 1200 520" width="100%" height="100%">
  <defs>
    <linearGradient id="brand" x1="120" y1="0" x2="1080" y2="0" gradientUnits="userSpaceOnUse">
      <stop offset="0%" stop-color="#7CC98F"/><stop offset="100%" stop-color="#7BC6DD"/>
    </linearGradient>
    <path id="sparkle" d="M0,-20 C2.4,-6.5 6.5,-2.4 20,0 C6.5,2.4 2.4,6.5 0,20 C-2.4,6.5 -6.5,2.4 -20,0 C-6.5,-2.4 -2.4,-6.5 0,-20 Z"/>
  </defs>
  <rect width="1200" height="520" fill="#F5EFE2"/>
  <rect x="20" y="20" width="1160" height="480" fill="none" stroke="#22301F" stroke-width="1.5"/>
  <rect x="0" y="470" width="1200" height="50" fill="#E7DCC3" opacity="0.95"/>
  <path d="M0,467 L1200,467" stroke="url(#brand)" stroke-width="3" stroke-linecap="round"/>
  <g opacity="0.34" fill="#22301F">
    <circle cx="39" cy="490" r="1.2"/><circle cx="66" cy="479" r="1.4"/><circle cx="95" cy="491" r="1.1"/>
    <circle cx="1004" cy="482" r="1.2"/><circle cx="1031" cy="491" r="1.4"/><circle cx="1064" cy="478" r="1.1"/>
  </g>
  <g transform="translate(101 90) scale(0.9)"><use href="#sparkle" fill="#7CC98F"/></g>
  <text x="52" y="56" font-family="IBM Plex Mono, monospace" font-size="14" letter-spacing="2" fill="#22301F">07 LANDSCAPE &amp; SUSTAINABILITY</text>
  <g transform="translate(600 268)">
    <path d="M-220,-100 C-220,-100 -220,-78 -220,-62 C-220,-18 -220,8 -220,38 C-220,84 -220,112 -220,144" fill="none" stroke="#22301F" stroke-width="2"/>
    <path d="M0,-132 C0,-132 0,-104 0,-84 C0,-46 0,-22 0,8 C0,54 0,84 0,118" fill="none" stroke="#22301F" stroke-width="2"/>
    <path d="M220,-84 C220,-84 220,-62 220,-44 C220,-8 220,22 220,52 C220,90 220,122 220,150" fill="none" stroke="#22301F" stroke-width="2"/>
    <path d="M-276,-18 C-150,-52 -36,-34 68,-10 C144,8 220,24 290,6" fill="none" stroke="#CFC0A0" stroke-width="2.2"/>
    <path d="M-276,-18 C-150,-52 -36,-34 68,-10 C144,8 220,24 290,6" fill="none" stroke="#2F6B4A" stroke-width="1.6" opacity="0.8"/>
    <g fill="#A9C6A0" fill-opacity="0.36" stroke="#22301F" stroke-width="1">
      <ellipse cx="-220" cy="-84" rx="78" ry="28"/><ellipse cx="0" cy="-112" rx="108" ry="42"/><ellipse cx="220" cy="-70" rx="74" ry="28"/>
      <ellipse cx="-220" cy="-8" rx="54" ry="18"/><ellipse cx="0" cy="12" rx="66" ry="22"/><ellipse cx="220" cy="16" rx="56" ry="20"/>
    </g>
    <g fill="#22301F" fill-opacity="0.64">
      <circle cx="-266" cy="-76" r="1.2"/><circle cx="-250" cy="-58" r="1.2"/><circle cx="-230" cy="-70" r="1.2"/><circle cx="-206" cy="-62" r="1.2"/>
      <circle cx="-24" cy="-108" r="1.2"/><circle cx="2" cy="-126" r="1.2"/><circle cx="26" cy="-110" r="1.2"/><circle cx="52" cy="-120" r="1.2"/>
      <circle cx="184" cy="-62" r="1.2"/><circle cx="206" cy="-80" r="1.2"/><circle cx="232" cy="-68" r="1.2"/><circle cx="258" cy="-58" r="1.2"/>
    </g>
    <g fill="#C05A32" fill-opacity="0.22">
      <path d="M-176,86 C-160,96 -144,102 -126,104 C-146,126 -164,144 -184,148 C-194,130 -192,108 -176,86 Z"/>
      <path d="M-28,100 C-8,110 12,114 34,116 C18,138 2,154 -16,158 C-28,140 -32,120 -28,100 Z"/>
      <path d="M134,90 C154,100 174,106 196,108 C176,130 158,146 138,150 C126,132 124,112 134,90 Z"/>
    </g>
    <g fill="#4E8FA8" fill-opacity="0.18">
      <path d="M-292,162 C-240,144 -194,138 -146,138 C-206,172 -252,180 -292,162 Z"/>
      <path d="M-58,168 C-18,154 22,150 62,154 C16,182 -20,188 -58,168 Z"/>
      <path d="M118,166 C162,150 206,146 254,150 C210,176 164,184 118,166 Z"/>
    </g>
  </g>
</svg>
