<?xml version="1.0" encoding="UTF-8"?>
<svg xmlns="http://www.w3.org/2000/svg" viewBox="0 0 1200 520" width="100%" height="100%">
  <defs>
    <linearGradient id="brand" x1="120" y1="0" x2="1080" y2="0" gradientUnits="userSpaceOnUse">
      <stop offset="0%" stop-color="#7CC98F"/><stop offset="100%" stop-color="#7BC6DD"/>
    </linearGradient>
    <path id="sparkle" d="M0,-20 C2.4,-6.5 6.5,-2.4 20,0 C6.5,2.4 2.4,6.5 0,20 C-2.4,6.5 -6.5,2.4 -20,0 C-6.5,-2.4 -2.4,-6.5 0,-20 Z"/>
  </defs>
  <rect width="1200" height="520" fill="#F5EFE2"/>
  <rect x="20" y="20" width="1160" height="480" fill="none" stroke="#22301F" stroke-width="1.5"/>
  <rect x="0" y="470" width="1200" height="50" fill="#E7DCC3" opacity="0.95"/>
  <path d="M0,467 L1200,467" stroke="url(#brand)" stroke-width="3" stroke-linecap="round"/>
  <g opacity="0.34" fill="#22301F">
    <circle cx="38" cy="490" r="1.2"/><circle cx="65" cy="479" r="1.4"/><circle cx="95" cy="491" r="1.1"/>
    <circle cx="1007" cy="482" r="1.2"/><circle cx="1036" cy="491" r="1.4"/><circle cx="1070" cy="478" r="1.1"/>
  </g>
  <g transform="translate(98 90) scale(0.9)"><use href="#sparkle" fill="#7CC98F"/></g>
  <text x="52" y="56" font-family="IBM Plex Mono, monospace" font-size="14" letter-spacing="2" fill="#22301F">10 VISUALIZATION &amp; FILM</text>
  <g transform="translate(600 274)">
    <rect x="-320" y="-112" width="190" height="222" fill="#E7DCC3" fill-opacity="0.55" stroke="#22301F" stroke-width="1.6"/>
    <rect x="-88" y="-112" width="190" height="222" fill="#E7DCC3" fill-opacity="0.55" stroke="#22301F" stroke-width="1.6"/>
    <rect x="144" y="-112" width="190" height="222" fill="#E7DCC3" fill-opacity="0.55" stroke="#22301F" stroke-width="1.6"/>
    <rect x="-320" y="-112" width="190" height="222" fill="none" stroke="#22301F" stroke-width="2"/>
    <rect x="-88" y="-112" width="190" height="222" fill="none" stroke="#22301F" stroke-width="2"/>
    <rect x="144" y="-112" width="190" height="222" fill="none" stroke="#22301F" stroke-width="2"/>
    <g transform="translate(-225 -5)">
      <rect x="-72" y="-72" width="144" height="144" rx="10" fill="#F5EFE2"/>
      <path d="M-60,30 C-14,4 18,-4 56,-28" fill="none" stroke="#2F6B4A" stroke-width="8" stroke-linecap="round"/>
      <path d="M-54,14 C-22,6 10,-4 46,-24" fill="none" stroke="#A9C6A0" stroke-width="14" stroke-linecap="round" opacity="0.55"/>
      <circle cx="-18" cy="-18" r="12" fill="#7BC6DD" fill-opacity="0.22"/><circle cx="26" cy="10" r="10" fill="#C05A32" fill-opacity="0.14"/>
      <path d="M-60,44 L58,44" stroke="#22301F" stroke-width="1.1" opacity="0.4"/>
    </g>
    <g transform="translate(7 -5)">
      <rect x="-72" y="-72" width="144" height="144" rx="10" fill="#F5EFE2"/>
      <rect x="-72" y="-10" width="144" height="72" fill="#C05A32" fill-opacity="0.18"/>
      <path d="M-52,28 C-18,10 8,-2 50,-30" fill="none" stroke="#22301F" stroke-width="8" stroke-linecap="round"/>
      <circle cx="-22" cy="-18" r="12" fill="#7CC98F" fill-opacity="0.2"/><circle cx="28" cy="8" r="10" fill="#7BC6DD" fill-opacity="0.18"/>
      <path d="M-60,44 L58,44" stroke="#22301F" stroke-width="1.1" opacity="0.4"/>
    </g>
    <g transform="translate(239 -5)">
      <rect x="-72" y="-72" width="144" height="144" rx="10" fill="#F5EFE2"/>
      <rect x="-72" y="-72" width="144" height="144" rx="10" fill="#22301F" fill-opacity="0.92"/>
      <circle cx="-26" cy="-18" r="12" fill="#CFC0A0" fill-opacity="0.16"/><circle cx="18" cy="2" r="10" fill="#C05A32" fill-opacity="0.26"/><circle cx="46" cy="22" r="8" fill="#7BC6DD" fill-opacity="0.18"/>
      <path d="M-56,30 C-18,8 14,-6 54,-30" fill="none" stroke="#7CC98F" stroke-width="8" stroke-linecap="round" opacity="0.78"/>
      <path d="M-60,44 L58,44" stroke="#F5EFE2" stroke-width="1.1" opacity="0.55"/>
    </g>
    <g fill="#E7DCC3" font-family="IBM Plex Mono, monospace" font-size="11" letter-spacing="1.5">
      <text x="-302" y="-86">DAY</text>
      <text x="-70" y="-86">DUSK</text>
      <text x="146" y="-86">NIGHT</text>
    </g>
  </g>
</svg>
