<?xml version="1.0" encoding="UTF-8"?>
<svg xmlns="http://www.w3.org/2000/svg" viewBox="0 0 1200 520" width="100%" height="100%">
  <defs>
    <linearGradient id="brand" x1="120" y1="0" x2="1080" y2="0" gradientUnits="userSpaceOnUse">
      <stop offset="0%" stop-color="#7CC98F"/><stop offset="100%" stop-color="#7BC6DD"/>
    </linearGradient>
    <path id="sparkle" d="M0,-20 C2.4,-6.5 6.5,-2.4 20,0 C6.5,2.4 2.4,6.5 0,20 C-2.4,6.5 -6.5,2.4 -20,0 C-6.5,-2.4 -2.4,-6.5 0,-20 Z"/>
  </defs>
  <rect width="1200" height="520" fill="#F5EFE2"/>
  <rect x="20" y="20" width="1160" height="480" fill="none" stroke="#22301F" stroke-width="1.5"/>
  <rect x="0" y="470" width="1200" height="50" fill="#E7DCC3" opacity="0.95"/>
  <path d="M0,467 L1200,467" stroke="url(#brand)" stroke-width="3" stroke-linecap="round"/>
  <g opacity="0.34" fill="#22301F">
    <circle cx="34" cy="488" r="1.2"/><circle cx="57" cy="479" r="1.5"/><circle cx="83" cy="491" r="1.1"/><circle cx="119" cy="482" r="1.4"/>
    <circle cx="991" cy="490" r="1.1"/><circle cx="1022" cy="480" r="1.6"/><circle cx="1051" cy="492" r="1.2"/><circle cx="1086" cy="478" r="1.4"/>
  </g>
  <g transform="translate(104 86) scale(0.88)"><use href="#sparkle" fill="#7BC6DD"/></g>
  <text x="52" y="56" font-family="IBM Plex Mono, monospace" font-size="14" letter-spacing="2" fill="#22301F">02 DESIGN NARRATIVE</text>
  <g transform="translate(600 270)">
    <circle cx="0" cy="56" r="116" fill="#CFC0A0" fill-opacity="0.18"/>
    <circle cx="0" cy="56" r="94" fill="none" stroke="#22301F" stroke-width="1.4" stroke-dasharray="2 8" opacity="0.55"/>
    <path d="M0,60 C6,12 14,-18 22,-58 C29,-93 37,-114 62,-150" fill="none" stroke="#2F6B4A" stroke-width="4" stroke-linecap="round"/>
    <path d="M0,60 C-4,24 -8,-2 -16,-44 C-24,-88 -34,-114 -60,-148" fill="none" stroke="#2F6B4A" stroke-width="2.2" stroke-linecap="round" opacity="0.9"/>
    <path d="M6,-96 C20,-114 39,-124 60,-128" fill="none" stroke="#A9C6A0" stroke-width="2"/>
    <ellipse cx="0" cy="80" rx="125" ry="70" fill="#E7DCC3" fill-opacity="0.7"/>
    <g fill="#CFC0A0" fill-opacity="0.92" stroke="#22301F" stroke-width="1.1">
      <ellipse cx="-90" cy="120" rx="20" ry="12"/><ellipse cx="-56" cy="132" rx="21" ry="12"/><ellipse cx="-18" cy="138" rx="22" ry="13"/>
      <ellipse cx="22" cy="138" rx="22" ry="13"/><ellipse cx="60" cy="132" rx="21" ry="12"/><ellipse cx="94" cy="120" rx="20" ry="12"/>
    </g>
    <g fill="#22301F" fill-opacity="0.24">
      <circle cx="-98" cy="84" r="1.2"/><circle cx="-85" cy="71" r="1.4"/><circle cx="-71" cy="92" r="1.1"/><circle cx="-58" cy="77" r="1.3"/>
      <circle cx="-42" cy="88" r="1.2"/><circle cx="-26" cy="71" r="1.4"/><circle cx="-13" cy="93" r="1.1"/><circle cx="0" cy="76" r="1.3"/>
      <circle cx="15" cy="88" r="1.2"/><circle cx="31" cy="72" r="1.4"/><circle cx="45" cy="93" r="1.1"/><circle cx="60" cy="79" r="1.3"/>
      <circle cx="76" cy="90" r="1.2"/><circle cx="92" cy="74" r="1.4"/>
    </g>
  </g>
</svg>
