<?xml version="1.0" encoding="UTF-8"?>
<svg xmlns="http://www.w3.org/2000/svg" viewBox="0 0 1200 520" width="100%" height="100%">
  <defs>
    <linearGradient id="brand" x1="120" y1="0" x2="1080" y2="0" gradientUnits="userSpaceOnUse">
      <stop offset="0%" stop-color="#7CC98F"/><stop offset="100%" stop-color="#7BC6DD"/>
    </linearGradient>
    <path id="sparkle" d="M0,-20 C2.4,-6.5 6.5,-2.4 20,0 C6.5,2.4 2.4,6.5 0,20 C-2.4,6.5 -6.5,2.4 -20,0 C-6.5,-2.4 -2.4,-6.5 0,-20 Z"/>
  </defs>
  <rect width="1200" height="520" fill="#F5EFE2"/>
  <rect x="20" y="20" width="1160" height="480" fill="none" stroke="#22301F" stroke-width="1.5"/>
  <rect x="0" y="470" width="1200" height="50" fill="#E7DCC3" opacity="0.95"/>
  <path d="M0,467 L1200,467" stroke="url(#brand)" stroke-width="3" stroke-linecap="round"/>
  <g opacity="0.34" fill="#22301F">
    <circle cx="38" cy="490" r="1.2"/><circle cx="67" cy="479" r="1.4"/><circle cx="96" cy="491" r="1.1"/>
    <circle cx="1008" cy="482" r="1.2"/><circle cx="1037" cy="491" r="1.4"/><circle cx="1070" cy="478" r="1.1"/>
  </g>
  <g transform="translate(100 90) scale(0.88)"><use href="#sparkle" fill="#C05A32"/></g>
  <text x="52" y="56" font-family="IBM Plex Mono, monospace" font-size="14" letter-spacing="2" fill="#22301F">09 SECTIONS &amp; DIAGRAMS</text>
  <g transform="translate(600 270)">
    <path d="M-260,36 L-180,36 L-140,-18 L-62,-18 L-18,36 L54,36 L102,-2 L172,-2 L222,36 L286,36" fill="none" stroke="#22301F" stroke-width="2"/>
    <path d="M-260,36 L-180,36 L-140,-18 L-62,-18 L-18,36 L54,36 L102,-2 L172,-2 L222,36 L286,36" fill="none" stroke="#CFC0A0" stroke-width="44" stroke-linecap="round" stroke-linejoin="round"/>
    <path d="M-260,36 L-180,36 L-140,-18 L-62,-18 L-18,36 L54,36 L102,-2 L172,-2 L222,36 L286,36" fill="none" stroke="#22301F" stroke-width="2" stroke-linecap="round" stroke-linejoin="round"/>
    <path d="M-190,36 C-174,12 -160,-4 -148,-30" fill="none" stroke="#22301F" stroke-width="1.5" stroke-dasharray="6 6"/>
    <path d="M-90,36 C-74,8 -64,-8 -54,-30" fill="none" stroke="#22301F" stroke-width="1.5" stroke-dasharray="6 6"/>
    <path d="M20,36 C38,8 50,-8 60,-30" fill="none" stroke="#22301F" stroke-width="1.5" stroke-dasharray="6 6"/>
    <path d="M138,36 C156,8 170,-8 180,-30" fill="none" stroke="#22301F" stroke-width="1.5" stroke-dasharray="6 6"/>
    <path d="M214,36 C232,14 244,-2 256,-26" fill="none" stroke="#22301F" stroke-width="1.5" stroke-dasharray="6 6"/>
    <g fill="#A9C6A0" fill-opacity="0.36" stroke="#22301F" stroke-width="1">
      <path d="M-212,-22 C-194,-42 -176,-42 -158,-22 C-176,-4 -194,-4 -212,-22 Z"/>
      <path d="M-78,-40 C-58,-62 -36,-62 -16,-40 C-36,-18 -58,-18 -78,-40 Z"/>
      <path d="M44,-8 C58,-24 76,-24 90,-8 C76,8 58,8 44,-8 Z"/>
      <path d="M162,-34 C176,-50 194,-50 208,-34 C194,-18 176,-18 162,-34 Z"/>
      <path d="M248,-18 C262,-34 280,-34 294,-18 C280,-2 262,-2 248,-18 Z"/>
    </g>
    <path d="M-104,66 C-92,52 -74,48 -60,50 C-72,66 -82,78 -100,80" fill="#4E8FA8" fill-opacity="0.16" stroke="#22301F" stroke-width="1.2"/>
    <path d="M96,66 C108,52 126,48 140,50 C128,66 118,78 100,80" fill="#C05A32" fill-opacity="0.16" stroke="#22301F" stroke-width="1.2"/>
  </g>
</svg>
