<?xml version="1.0" encoding="UTF-8"?>
<svg xmlns="http://www.w3.org/2000/svg" viewBox="0 0 1200 520" width="100%" height="100%">
  <defs>
    <linearGradient id="brand" x1="120" y1="0" x2="1080" y2="0" gradientUnits="userSpaceOnUse">
      <stop offset="0%" stop-color="#7CC98F"/><stop offset="100%" stop-color="#7BC6DD"/>
    </linearGradient>
    <path id="sparkle" d="M0,-20 C2.4,-6.5 6.5,-2.4 20,0 C6.5,2.4 2.4,6.5 0,20 C-2.4,6.5 -6.5,2.4 -20,0 C-6.5,-2.4 -2.4,-6.5 0,-20 Z"/>
  </defs>
  <rect width="1200" height="520" fill="#F5EFE2"/>
  <rect x="20" y="20" width="1160" height="480" fill="none" stroke="#22301F" stroke-width="1.5"/>
  <rect x="0" y="470" width="1200" height="50" fill="#E7DCC3" opacity="0.95"/>
  <path d="M0,467 L1200,467" stroke="url(#brand)" stroke-width="3" stroke-linecap="round"/>
  <g opacity="0.34" fill="#22301F">
    <circle cx="47" cy="490" r="1.2"/><circle cx="72" cy="479" r="1.4"/><circle cx="96" cy="491" r="1.1"/>
    <circle cx="1008" cy="482" r="1.2"/><circle cx="1034" cy="491" r="1.4"/><circle cx="1069" cy="478" r="1.1"/>
  </g>
  <g transform="translate(100 92) scale(0.88)"><use href="#sparkle" fill="#C05A32"/></g>
  <text x="52" y="56" font-family="IBM Plex Mono, monospace" font-size="14" letter-spacing="2" fill="#22301F">06 MASTERPLAN</text>
  <g transform="translate(600 268)">
    <path d="M-302,-22 C-230,-64 -148,-82 -72,-72 C-2,-62 56,-24 112,10 C172,46 248,58 308,40" fill="none" stroke="#2F6B4A" stroke-width="20" stroke-linecap="round"/>
    <path d="M-302,-22 C-230,-64 -148,-82 -72,-72 C-2,-62 56,-24 112,10 C172,46 248,58 308,40" fill="none" stroke="#CFC0A0" stroke-width="8" stroke-linecap="round"/>
    <path d="M-72,-72 C-80,4 -32,46 20,68 C58,84 100,96 128,122" fill="none" stroke="#CFC0A0" stroke-width="46" stroke-linecap="round"/>
    <path d="M-72,-72 C-80,4 -32,46 20,68 C58,84 100,96 128,122" fill="none" stroke="#22301F" stroke-width="2"/>
    <path d="M128,122 L188,122 L218,80" fill="none" stroke="#C05A32" stroke-width="42" stroke-linecap="round" stroke-linejoin="round"/>
    <path d="M128,122 L188,122 L218,80" fill="none" stroke="#22301F" stroke-width="2.1" stroke-linecap="round" stroke-linejoin="round"/>
    <path d="M218,80 C258,16 282,-24 330,-62" fill="none" stroke="#4E8FA8" stroke-width="20" stroke-linecap="round"/>
    <path d="M218,80 C258,16 282,-24 330,-62" fill="none" stroke="#22301F" stroke-width="2" stroke-linecap="round"/>
    <g fill="#A9C6A0" fill-opacity="0.34" stroke="#22301F" stroke-width="1.1">
      <circle cx="-214" cy="-60" r="26"/><circle cx="-160" cy="-92" r="18"/><circle cx="-118" cy="-28" r="22"/>
      <circle cx="-8" cy="-118" r="22"/><circle cx="54" cy="-50" r="18"/><circle cx="168" cy="-8" r="24"/>
      <circle cx="272" cy="-92" r="22"/><circle cx="306" cy="62" r="20"/>
    </g>
    <g fill="#22301F" fill-opacity="0.8">
      <circle cx="-214" cy="-60" r="2.2"/><circle cx="-160" cy="-92" r="2.2"/><circle cx="-118" cy="-28" r="2.2"/>
      <circle cx="-8" cy="-118" r="2.2"/><circle cx="54" cy="-50" r="2.2"/><circle cx="168" cy="-8" r="2.2"/>
      <circle cx="272" cy="-92" r="2.2"/><circle cx="306" cy="62" r="2.2"/>
    </g>
  </g>
</svg>
