<?xml version="1.0" encoding="UTF-8"?>
<svg xmlns="http://www.w3.org/2000/svg" viewBox="0 0 1200 520" width="100%" height="100%">
  <defs>
    <linearGradient id="brand" x1="120" y1="0" x2="1080" y2="0" gradientUnits="userSpaceOnUse">
      <stop offset="0%" stop-color="#7CC98F"/><stop offset="100%" stop-color="#7BC6DD"/>
    </linearGradient>
    <path id="sparkle" d="M0,-20 C2.4,-6.5 6.5,-2.4 20,0 C6.5,2.4 2.4,6.5 0,20 C-2.4,6.5 -6.5,2.4 -20,0 C-6.5,-2.4 -2.4,-6.5 0,-20 Z"/>
  </defs>
  <rect width="1200" height="520" fill="#F5EFE2"/>
  <rect x="20" y="20" width="1160" height="480" fill="none" stroke="#22301F" stroke-width="1.5"/>
  <rect x="0" y="470" width="1200" height="50" fill="#E7DCC3" opacity="0.95"/>
  <path d="M0,467 L1200,467" stroke="url(#brand)" stroke-width="3" stroke-linecap="round"/>
  <g opacity="0.32" fill="#22301F">
    <circle cx="35" cy="483" r="1.1"/><circle cx="62" cy="491" r="1.4"/><circle cx="89" cy="479" r="1.2"/><circle cx="116" cy="489" r="1.3"/>
    <circle cx="1008" cy="483" r="1.1"/><circle cx="1034" cy="492" r="1.4"/><circle cx="1062" cy="478" r="1.2"/><circle cx="1088" cy="490" r="1.3"/>
  </g>
  <g transform="translate(1010 95) scale(0.88)"><use href="#sparkle" fill="#C05A32"/></g>
  <text x="52" y="56" font-family="IBM Plex Mono, monospace" font-size="14" letter-spacing="2" fill="#22301F">03 SITE ANALYSIS</text>
  <g transform="translate(600 266)">
    <rect x="-210" y="-40" width="420" height="208" rx="8" fill="#E7DCC3" fill-opacity="0.35" stroke="#22301F" stroke-width="1.8"/>
    <path d="M-210,-40 L-178,-40 L-178,168 L-210,168 M210,-40 L178,-40 L178,168 L210,168 M-210,-40 L210,-40 M-210,168 L210,168" fill="none" stroke="#22301F" stroke-width="1.8"/>
    <path d="M-164,118 C-76,56 20,40 86,10 C146,-18 188,-62 226,-120" fill="none" stroke="#C05A32" stroke-width="2.8" stroke-linecap="round"/>
    <path d="M-190,98 C-150,80 -118,74 -92,70 M-170,76 L-192,96 L-170,118" fill="none" stroke="#22301F" stroke-width="1.6" stroke-linecap="round"/>
    <path d="M-120,84 L-98,64 L-120,46 M-98,64 L-132,64" fill="none" stroke="#22301F" stroke-width="1.6" stroke-linecap="round"/>
    <path d="M-60,60 L-34,40 L-60,20 M-34,40 L-70,40" fill="none" stroke="#22301F" stroke-width="1.6" stroke-linecap="round"/>
    <path d="M-4,38 L20,18 L-4,-2 M20,18 L-16,18" fill="none" stroke="#22301F" stroke-width="1.6" stroke-linecap="round"/>
    <path d="M50,22 L74,2 L50,-18 M74,2 L38,2" fill="none" stroke="#22301F" stroke-width="1.6" stroke-linecap="round"/>
    <path d="M104,-8 L128,-28 L104,-48 M128,-28 L92,-28" fill="none" stroke="#22301F" stroke-width="1.6" stroke-linecap="round"/>
    <g fill="#22301F" opacity="0.76">
      <circle cx="-150" cy="130" r="1.8"/><circle cx="-122" cy="112" r="1.8"/><circle cx="-92" cy="98" r="1.8"/><circle cx="-52" cy="84" r="1.8"/>
      <circle cx="-14" cy="68" r="1.8"/><circle cx="30" cy="48" r="1.8"/><circle cx="70" cy="32" r="1.8"/><circle cx="118" cy="10" r="1.8"/>
      <circle cx="162" cy="-14" r="1.8"/><circle cx="198" cy="-54" r="1.8"/>
    </g>
    <g fill="#7BC6DD" fill-opacity="0.24">
      <circle cx="-130" cy="126" r="26"/><circle cx="-10" cy="70" r="18"/><circle cx="88" cy="22" r="14"/>
    </g>
  </g>
</svg>
