<?xml version="1.0" encoding="UTF-8"?>
<svg xmlns="http://www.w3.org/2000/svg" viewBox="0 0 1200 520" width="100%" height="100%">
  <defs>
    <linearGradient id="brand" x1="120" y1="0" x2="1080" y2="0" gradientUnits="userSpaceOnUse">
      <stop offset="0%" stop-color="#7CC98F"/><stop offset="100%" stop-color="#7BC6DD"/>
    </linearGradient>
    <path id="sparkle" d="M0,-20 C2.4,-6.5 6.5,-2.4 20,0 C6.5,2.4 2.4,6.5 0,20 C-2.4,6.5 -6.5,2.4 -20,0 C-6.5,-2.4 -2.4,-6.5 0,-20 Z"/>
  </defs>
  <rect width="1200" height="520" fill="#F5EFE2"/>
  <rect x="20" y="20" width="1160" height="480" fill="none" stroke="#22301F" stroke-width="1.5"/>
  <rect x="0" y="470" width="1200" height="50" fill="#E7DCC3" opacity="0.95"/>
  <path d="M0,467 L1200,467" stroke="url(#brand)" stroke-width="3" stroke-linecap="round"/>
  <g opacity="0.33" fill="#22301F">
    <circle cx="37" cy="490" r="1.2"/><circle cx="64" cy="479" r="1.4"/><circle cx="92" cy="491" r="1.1"/>
    <circle cx="1005" cy="482" r="1.2"/><circle cx="1036" cy="491" r="1.4"/><circle cx="1072" cy="478" r="1.1"/>
  </g>
  <g transform="translate(1022 90) scale(0.9)"><use href="#sparkle" fill="#7BC6DD"/></g>
  <text x="52" y="56" font-family="IBM Plex Mono, monospace" font-size="14" letter-spacing="2" fill="#22301F">05 AI METHODOLOGY</text>
  <g transform="translate(600 270)">
    <path d="M0,120 C-16,92 -34,76 -60,58 C-80,44 -95,26 -112,0 C-130,-28 -138,-54 -138,-84" fill="none" stroke="#22301F" stroke-width="1.8" stroke-linecap="round"/>
    <path d="M0,120 C10,92 26,70 52,56 C78,42 98,22 118,-8 C135,-33 142,-56 145,-88" fill="none" stroke="#22301F" stroke-width="1.8" stroke-linecap="round"/>
    <path d="M0,120 C-2,92 4,74 16,54 C29,31 29,3 21,-27 C14,-57 1,-82 -18,-108" fill="none" stroke="#22301F" stroke-width="1.8" stroke-linecap="round"/>
    <g stroke="#2F6B4A" stroke-width="3.2" stroke-linecap="round" fill="none">
      <path d="M-2,122 C-6,90 -10,64 -20,36"/>
      <path d="M-22,38 C-52,9 -75,-16 -92,-50"/>
      <path d="M-15,50 C-8,28 7,10 30,-10"/>
      <path d="M18,30 C48,18 70,-2 90,-34"/>
      <path d="M14,58 C26,80 44,106 66,126"/>
    </g>
    <g fill="#A9C6A0" fill-opacity="0.4" stroke="#22301F" stroke-width="1.1">
      <circle cx="0" cy="0" r="42"/>
      <circle cx="-100" cy="-60" r="20"/><circle cx="-34" cy="-30" r="16"/><circle cx="54" cy="-22" r="16"/><circle cx="104" cy="-58" r="18"/>
      <circle cx="-126" cy="-94" r="14"/><circle cx="142" cy="-92" r="14"/><circle cx="-80" cy="84" r="14"/><circle cx="94" cy="96" r="14"/>
    </g>
    <g fill="#22301F">
      <circle cx="0" cy="0" r="2.4"/><circle cx="-100" cy="-60" r="2"/><circle cx="-34" cy="-30" r="2"/><circle cx="54" cy="-22" r="2"/><circle cx="104" cy="-58" r="2"/>
      <circle cx="-126" cy="-94" r="2"/><circle cx="142" cy="-92" r="2"/><circle cx="-80" cy="84" r="2"/><circle cx="94" cy="96" r="2"/>
    </g>
    <g transform="translate(0 120)">
      <path d="M0,0 C-20,0 -26,12 -34,26" fill="none" stroke="#22301F" stroke-width="2"/>
      <path d="M0,0 C18,0 26,12 34,26" fill="none" stroke="#22301F" stroke-width="2"/>
      <path d="M-8,0 L-16,-20 M8,0 L16,-20" fill="none" stroke="#22301F" stroke-width="2"/>
      <path d="M-22,24 C-10,18 10,18 22,24" fill="none" stroke="#2F6B4A" stroke-width="2.4"/>
      <path d="M0,18 L0,36" fill="none" stroke="#2F6B4A" stroke-width="2.4"/>
      <path d="M-40,42 L-58,58 M40,42 L58,58" fill="none" stroke="#2F6B4A" stroke-width="2.4"/>
    </g>
    <g fill="#CFC0A0" fill-opacity="0.2">
      <circle cx="0" cy="0" r="76"/>
      <circle cx="0" cy="-102" r="18"/>
    </g>
  </g>
</svg>
