<svg xmlns="http://www.w3.org/2000/svg" viewBox="0 0 1280 720" width="100%">
  <defs>
    <path id="sp" d="M0 -12 C1.6 -3.2 3.2 -1.6 12 0 C3.2 1.6 1.6 3.2 0 12 C-1.6 3.2 -3.2 1.6 -12 0 C-3.2 -1.6 -1.6 -3.2 0 -12 Z"/>
  </defs>

  <!-- sky: wide open, opening day -->
  <rect width="1280" height="720" fill="#F5EFE2"/>
  <rect x="0" y="0" width="1280" height="330" fill="#7BC6DD" fill-opacity="0.17"/>
  <rect x="0" y="230" width="1280" height="100" fill="#F5EFE2" fill-opacity="0.75"/>
  <circle cx="240" cy="110" r="46" fill="#F5EFE2"/>
  <circle cx="240" cy="110" r="46" fill="#C05A32" fill-opacity="0.1"/>

  <!-- distant park band -->
  <ellipse cx="140" cy="326" rx="180" ry="30" fill="#A9C6A0" fill-opacity="0.4"/>
  <ellipse cx="560" cy="330" rx="220" ry="26" fill="#A9C6A0" fill-opacity="0.35"/>
  <ellipse cx="900" cy="328" rx="160" ry="24" fill="#2F6B4A" fill-opacity="0.25"/>

  <!-- ground -->
  <rect x="0" y="330" width="1280" height="390" fill="#E7DCC3"/>
  <!-- loop path sweeping through the room -->
  <path d="M0 640 Q420 520 900 400 L1010 400 Q560 540 220 700 L0 700 Z" fill="#CFC0A0"/>
  <path d="M0 640 Q420 520 900 400 L1010 400 Q560 540 220 700 L0 700 Z" fill="#F5EFE2" fill-opacity="0.35"/>
  <path d="M0 668 Q470 528 952 400" stroke="#22301F" stroke-opacity="0.1" stroke-width="2" fill="none"/>

  <!-- wadi bioswale, foreground right: newly cut, gravel + first reeds -->
  <path d="M700 720 Q860 660 1060 648 Q1180 642 1280 656 L1280 720 Z" fill="#CFC0A0" fill-opacity="0.5"/>
  <path d="M760 720 Q900 676 1090 666 Q1200 662 1280 672 L1280 720 Z" fill="#4E8FA8" fill-opacity="0.18"/>
  <g fill="#2F6B4A" fill-opacity="0.5">
    <circle cx="850" cy="686" r="5"/><circle cx="960" cy="676" r="4"/><circle cx="1120" cy="678" r="5"/>
  </g>
  <g fill="#22301F" fill-opacity="0.15">
    <circle cx="800" cy="700" r="2.5"/><circle cx="900" cy="694" r="2"/><circle cx="1010" cy="688" r="2.5"/>
    <circle cx="1200" cy="692" r="2"/><circle cx="1080" cy="700" r="2"/>
  </g>

  <!-- gateway pergola, right -->
  <g fill="#C05A32">
    <rect x="960" y="120" width="300" height="26"/>
    <rect x="960" y="120" width="30" height="290"/>
    <rect x="1230" y="120" width="30" height="290"/>
    <rect x="1002" y="146" width="11" height="84"/><rect x="1026" y="146" width="11" height="106"/>
    <rect x="1050" y="146" width="11" height="74"/><rect x="1074" y="146" width="11" height="116"/>
    <rect x="1098" y="146" width="11" height="90"/><rect x="1122" y="146" width="11" height="68"/>
    <rect x="1146" y="146" width="11" height="102"/><rect x="1170" y="146" width="11" height="82"/>
    <rect x="1194" y="146" width="11" height="120"/><rect x="1218" y="146" width="11" height="94"/>
  </g>
  <rect x="960" y="120" width="300" height="8" fill="#22301F" fill-opacity="0.2"/>
  <path d="M985 430 L1280 430 L1280 470 L1010 470 Z" fill="#22301F" fill-opacity="0.08"/>

  <!-- five ghaf positions: YEAR 0 — staked saplings, tiny crowns -->
  <!-- tree A -->
  <g>
    <path d="M150 470 L148 396" stroke="#22301F" stroke-width="4" fill="none" stroke-linecap="round"/>
    <path d="M136 470 L138 414 M164 470 L160 414" stroke="#C05A32" stroke-width="3" fill="none" stroke-linecap="round"/>
    <circle cx="147" cy="384" r="17" fill="#2F6B4A"/>
    <circle cx="139" cy="377" r="9" fill="#A9C6A0" fill-opacity="0.7"/>
    <ellipse cx="150" cy="474" rx="26" ry="6" fill="#22301F" fill-opacity="0.08"/>
    <circle cx="150" cy="470" r="22" fill="none" stroke="#4E8FA8" stroke-opacity="0.4" stroke-width="3"/>
  </g>
  <!-- tree B -->
  <g>
    <path d="M360 440 L358 372" stroke="#22301F" stroke-width="4" fill="none" stroke-linecap="round"/>
    <path d="M347 440 L349 388 M373 440 L370 388" stroke="#C05A32" stroke-width="3" fill="none" stroke-linecap="round"/>
    <circle cx="357" cy="360" r="15" fill="#2F6B4A"/>
    <circle cx="364" cy="354" r="8" fill="#A9C6A0" fill-opacity="0.7"/>
    <ellipse cx="360" cy="444" rx="24" ry="6" fill="#22301F" fill-opacity="0.08"/>
    <circle cx="360" cy="440" r="20" fill="none" stroke="#4E8FA8" stroke-opacity="0.4" stroke-width="3"/>
  </g>
  <!-- tree C -->
  <g>
    <path d="M560 420 L558 346" stroke="#22301F" stroke-width="4" fill="none" stroke-linecap="round"/>
    <path d="M547 420 L549 364 M573 420 L570 364" stroke="#C05A32" stroke-width="3" fill="none" stroke-linecap="round"/>
    <circle cx="557" cy="334" r="18" fill="#2F6B4A"/>
    <circle cx="549" cy="327" r="9" fill="#A9C6A0" fill-opacity="0.7"/>
    <ellipse cx="560" cy="424" rx="26" ry="6" fill="#22301F" fill-opacity="0.08"/>
    <circle cx="560" cy="420" r="21" fill="none" stroke="#4E8FA8" stroke-opacity="0.4" stroke-width="3"/>
  </g>
  <!-- tree D -->
  <g>
    <path d="M760 446 L758 376" stroke="#22301F" stroke-width="4" fill="none" stroke-linecap="round"/>
    <path d="M747 446 L749 392 M773 446 L770 392" stroke="#C05A32" stroke-width="3" fill="none" stroke-linecap="round"/>
    <circle cx="757" cy="364" r="16" fill="#2F6B4A"/>
    <circle cx="764" cy="358" r="8" fill="#A9C6A0" fill-opacity="0.7"/>
    <ellipse cx="760" cy="450" rx="24" ry="6" fill="#22301F" fill-opacity="0.08"/>
    <circle cx="760" cy="446" r="20" fill="none" stroke="#4E8FA8" stroke-opacity="0.4" stroke-width="3"/>
  </g>
  <!-- tree E, near gate -->
  <g>
    <path d="M918 400 L916 342" stroke="#22301F" stroke-width="4" fill="none" stroke-linecap="round"/>
    <path d="M907 400 L909 354 M929 400 L927 354" stroke="#C05A32" stroke-width="3" fill="none" stroke-linecap="round"/>
    <circle cx="915" cy="332" r="14" fill="#2F6B4A"/>
    <circle cx="909" cy="326" r="7" fill="#A9C6A0" fill-opacity="0.7"/>
    <ellipse cx="918" cy="404" rx="20" ry="5" fill="#22301F" fill-opacity="0.08"/>
    <circle cx="918" cy="400" r="17" fill="none" stroke="#4E8FA8" stroke-opacity="0.4" stroke-width="3"/>
  </g>

  <!-- sparse new understory -->
  <g fill="#2F6B4A" fill-opacity="0.45">
    <circle cx="250" cy="460" r="6"/><circle cx="470" cy="436" r="5"/><circle cx="660" cy="438" r="6"/>
    <circle cx="850" cy="426" r="5"/>
  </g>
  <g fill="#7CC98F" fill-opacity="0.5">
    <circle cx="300" cy="452" r="4"/><circle cx="610" cy="430" r="4"/><circle cx="806" cy="432" r="3.5"/>
  </g>

  <!-- sparkle inlay, freshly set -->
  <use href="#sp" transform="translate(360 620) scale(4.2)" fill="#C05A32"/>
  <use href="#sp" transform="translate(258 662) scale(1.5)" fill="#7CC98F"/>
  <use href="#sp" transform="translate(462 664) scale(1.3)" fill="#7BC6DD"/>

  <!-- opening-day visitors -->
  <g fill="#22301F">
    <path d="M525 486 q7 -16 0 -30 q-3 -8 4 -10 a9 9 0 1 1 6 1 q8 3 6 14 l-2 26 l7 32 h-8 l-7 -28 l-5 28 h-8 Z"/>
    <path d="M562 490 q-5 -18 1 -32 q-2 -8 5 -9 a8 8 0 1 1 6 1 q7 4 5 15 l1 25 l8 28 h-8 l-8 -24 l-3 24 h-8 Z"/>
    <path d="M1088 430 q6 -14 1 -26 q-3 -7 4 -9 a8 8 0 1 1 5 1 q7 3 5 13 l-1 22 l6 27 h-7 l-6 -23 l-4 23 h-7 Z"/>
  </g>

  <!-- open-sun stipple on raw ground -->
  <g fill="#C05A32" fill-opacity="0.2">
    <circle cx="120" cy="560" r="3"/><circle cx="230" cy="600" r="2.5"/><circle cx="620" cy="560" r="3"/>
    <circle cx="690" cy="610" r="2.5"/><circle cx="540" cy="660" r="2.5"/><circle cx="80" cy="640" r="2.5"/>
  </g>
  <g fill="#22301F" fill-opacity="0.1">
    <circle cx="180" cy="520" r="2.5"/><circle cx="430" cy="500" r="2"/><circle cx="720" cy="500" r="2.5"/>
    <circle cx="880" cy="480" r="2"/><circle cx="300" cy="560" r="2"/>
  </g>
</svg>
