<svg xmlns="http://www.w3.org/2000/svg" viewBox="0 0 1280 720" width="100%">
  <defs>
    <path id="sp" d="M0 -12 C1.6 -3.2 3.2 -1.6 12 0 C3.2 1.6 1.6 3.2 0 12 C-1.6 3.2 -3.2 1.6 -12 0 C-3.2 -1.6 -1.6 -3.2 0 -12 Z"/>
  </defs>

  <!-- sky: year two, canopies rising -->
  <rect width="1280" height="720" fill="#F5EFE2"/>
  <rect x="0" y="0" width="1280" height="330" fill="#7BC6DD" fill-opacity="0.17"/>
  <rect x="0" y="230" width="1280" height="100" fill="#F5EFE2" fill-opacity="0.75"/>
  <circle cx="240" cy="110" r="46" fill="#F5EFE2"/>
  <circle cx="240" cy="110" r="46" fill="#C05A32" fill-opacity="0.1"/>

  <!-- distant park band, greener now -->
  <ellipse cx="140" cy="324" rx="190" ry="36" fill="#A9C6A0" fill-opacity="0.55"/>
  <ellipse cx="560" cy="328" rx="230" ry="32" fill="#A9C6A0" fill-opacity="0.5"/>
  <ellipse cx="900" cy="326" rx="170" ry="30" fill="#2F6B4A" fill-opacity="0.35"/>

  <!-- ground -->
  <rect x="0" y="330" width="1280" height="390" fill="#E7DCC3"/>
  <path d="M0 640 Q420 520 900 400 L1010 400 Q560 540 220 700 L0 700 Z" fill="#CFC0A0"/>
  <path d="M0 640 Q420 520 900 400 L1010 400 Q560 540 220 700 L0 700 Z" fill="#F5EFE2" fill-opacity="0.35"/>
  <path d="M0 668 Q470 528 952 400" stroke="#22301F" stroke-opacity="0.1" stroke-width="2" fill="none"/>

  <!-- wadi bioswale: reeds establishing, seasonal water -->
  <path d="M700 720 Q860 660 1060 648 Q1180 642 1280 656 L1280 720 Z" fill="#A9C6A0" fill-opacity="0.4"/>
  <path d="M760 720 Q900 676 1090 666 Q1200 662 1280 672 L1280 720 Z" fill="#4E8FA8" fill-opacity="0.35"/>
  <g fill="#2F6B4A" fill-opacity="0.7">
    <circle cx="820" cy="684" r="8"/><circle cx="880" cy="674" r="7"/><circle cx="960" cy="670" r="9"/>
    <circle cx="1060" cy="664" r="7"/><circle cx="1150" cy="668" r="8"/><circle cx="1240" cy="672" r="7"/>
  </g>
  <g stroke="#2F6B4A" stroke-opacity="0.6" stroke-width="3" stroke-linecap="round" fill="none">
    <path d="M900 692 v-26"/><path d="M1010 684 v-24"/><path d="M1200 686 v-22"/>
  </g>

  <!-- gateway pergola, right (unchanged) -->
  <g fill="#C05A32">
    <rect x="960" y="120" width="300" height="26"/>
    <rect x="960" y="120" width="30" height="290"/>
    <rect x="1230" y="120" width="30" height="290"/>
    <rect x="1002" y="146" width="11" height="84"/><rect x="1026" y="146" width="11" height="106"/>
    <rect x="1050" y="146" width="11" height="74"/><rect x="1074" y="146" width="11" height="116"/>
    <rect x="1098" y="146" width="11" height="90"/><rect x="1122" y="146" width="11" height="68"/>
    <rect x="1146" y="146" width="11" height="102"/><rect x="1170" y="146" width="11" height="82"/>
    <rect x="1194" y="146" width="11" height="120"/><rect x="1218" y="146" width="11" height="94"/>
  </g>
  <rect x="960" y="120" width="300" height="8" fill="#22301F" fill-opacity="0.2"/>
  <path d="M985 430 L1280 430 L1280 470 L1010 470 Z" fill="#22301F" fill-opacity="0.1"/>
  <!-- first vine reaching the columns -->
  <path d="M990 410 Q1000 340 992 280" stroke="#2F6B4A" stroke-width="4" fill="none" stroke-opacity="0.7"/>
  <g fill="#7CC98F" fill-opacity="0.7">
    <circle cx="996" cy="360" r="6"/><circle cx="990" cy="316" r="5"/><circle cx="995" cy="288" r="5"/>
  </g>

  <!-- five ghaf positions: YEAR 2 — stakes off, crowns filling -->
  <!-- tree A -->
  <g>
    <path d="M150 470 L147 388 M148 414 L124 392 M149 406 L174 386" stroke="#22301F" stroke-width="5" fill="none" stroke-linecap="round"/>
    <ellipse cx="146" cy="368" rx="42" ry="27" fill="#2F6B4A"/>
    <ellipse cx="128" cy="358" rx="22" ry="14" fill="#A9C6A0" fill-opacity="0.7"/>
    <ellipse cx="166" cy="374" rx="18" ry="11" fill="#A9C6A0" fill-opacity="0.5"/>
    <ellipse cx="150" cy="476" rx="46" ry="9" fill="#22301F" fill-opacity="0.09"/>
  </g>
  <!-- tree B -->
  <g>
    <path d="M360 440 L357 362 M358 388 L336 368 M359 380 L382 362" stroke="#22301F" stroke-width="5" fill="none" stroke-linecap="round"/>
    <ellipse cx="357" cy="344" rx="38" ry="24" fill="#2F6B4A"/>
    <ellipse cx="374" cy="336" rx="20" ry="13" fill="#A9C6A0" fill-opacity="0.7"/>
    <ellipse cx="340" cy="350" rx="16" ry="10" fill="#A9C6A0" fill-opacity="0.5"/>
    <ellipse cx="360" cy="446" rx="42" ry="8" fill="#22301F" fill-opacity="0.09"/>
  </g>
  <!-- tree C -->
  <g>
    <path d="M560 420 L557 338 M558 366 L534 344 M559 356 L584 338" stroke="#22301F" stroke-width="5" fill="none" stroke-linecap="round"/>
    <ellipse cx="556" cy="318" rx="45" ry="28" fill="#2F6B4A"/>
    <ellipse cx="536" cy="308" rx="23" ry="15" fill="#A9C6A0" fill-opacity="0.7"/>
    <ellipse cx="578" cy="324" rx="19" ry="12" fill="#A9C6A0" fill-opacity="0.5"/>
    <ellipse cx="560" cy="426" rx="48" ry="9" fill="#22301F" fill-opacity="0.09"/>
  </g>
  <!-- tree D -->
  <g>
    <path d="M760 446 L757 370 M758 396 L737 376 M759 388 L781 370" stroke="#22301F" stroke-width="5" fill="none" stroke-linecap="round"/>
    <ellipse cx="757" cy="350" rx="40" ry="25" fill="#2F6B4A"/>
    <ellipse cx="774" cy="342" rx="21" ry="13" fill="#A9C6A0" fill-opacity="0.7"/>
    <ellipse cx="740" cy="356" rx="17" ry="10" fill="#A9C6A0" fill-opacity="0.5"/>
    <ellipse cx="760" cy="452" rx="44" ry="8" fill="#22301F" fill-opacity="0.09"/>
  </g>
  <!-- tree E -->
  <g>
    <path d="M918 400 L915 336 M916 358 L898 342 M917 352 L936 336" stroke="#22301F" stroke-width="4" fill="none" stroke-linecap="round"/>
    <ellipse cx="915" cy="320" rx="33" ry="21" fill="#2F6B4A"/>
    <ellipse cx="901" cy="312" rx="17" ry="11" fill="#A9C6A0" fill-opacity="0.7"/>
    <ellipse cx="918" cy="404" rx="36" ry="7" fill="#22301F" fill-opacity="0.09"/>
  </g>

  <!-- understory filling in -->
  <g fill="#2F6B4A" fill-opacity="0.6">
    <circle cx="250" cy="458" r="10"/><circle cx="280" cy="452" r="8"/><circle cx="470" cy="432" r="9"/>
    <circle cx="500" cy="440" r="7"/><circle cx="660" cy="434" r="10"/><circle cx="850" cy="422" r="8"/>
    <circle cx="200" cy="466" r="7"/>
  </g>
  <g fill="#7CC98F" fill-opacity="0.6">
    <circle cx="302" cy="448" r="5"/><circle cx="610" cy="428" r="5"/><circle cx="806" cy="428" r="5"/>
    <circle cx="440" cy="442" r="4"/><circle cx="700" cy="430" r="4"/>
  </g>

  <!-- sparkle inlay -->
  <use href="#sp" transform="translate(360 620) scale(4.2)" fill="#C05A32"/>
  <use href="#sp" transform="translate(258 662) scale(1.5)" fill="#7CC98F"/>
  <use href="#sp" transform="translate(462 664) scale(1.3)" fill="#7BC6DD"/>

  <!-- regulars now: walkers and a runner -->
  <g fill="#22301F">
    <path d="M525 486 q7 -16 0 -30 q-3 -8 4 -10 a9 9 0 1 1 6 1 q8 3 6 14 l-2 26 l7 32 h-8 l-7 -28 l-5 28 h-8 Z"/>
    <path d="M562 490 q-5 -18 1 -32 q-2 -8 5 -9 a8 8 0 1 1 6 1 q7 4 5 15 l1 25 l8 28 h-8 l-8 -24 l-3 24 h-8 Z"/>
    <path d="M700 452 q9 -14 3 -26 q-3 -7 4 -9 a8 8 0 1 1 5 1 q7 3 6 12 l-3 20 l12 22 h-8 l-10 -17 l-9 19 h-8 Z"/>
    <path d="M1088 430 q6 -14 1 -26 q-3 -7 4 -9 a8 8 0 1 1 5 1 q7 3 5 13 l-1 22 l6 27 h-7 l-6 -23 l-4 23 h-7 Z"/>
  </g>

  <!-- stipple: shade patches beginning -->
  <g fill="#C05A32" fill-opacity="0.2">
    <circle cx="120" cy="560" r="3"/><circle cx="230" cy="600" r="2.5"/><circle cx="620" cy="560" r="3"/>
    <circle cx="690" cy="610" r="2.5"/><circle cx="540" cy="660" r="2.5"/><circle cx="80" cy="640" r="2.5"/>
  </g>
  <g fill="#2F6B4A" fill-opacity="0.18">
    <circle cx="180" cy="520" r="3"/><circle cx="430" cy="500" r="2.5"/><circle cx="720" cy="500" r="3"/>
    <circle cx="880" cy="480" r="2.5"/><circle cx="300" cy="560" r="2.5"/>
  </g>
</svg>
