<svg xmlns="http://www.w3.org/2000/svg" viewBox="0 0 1280 720" width="100%">
  <defs>
    <path id="sp" d="M0 -12 C1.6 -3.2 3.2 -1.6 12 0 C3.2 1.6 1.6 3.2 0 12 C-1.6 3.2 -3.2 1.6 -12 0 C-3.2 -1.6 -1.6 -3.2 0 -12 Z"/>
  </defs>

  <!-- sky: year five, glimpsed through mature canopy -->
  <rect width="1280" height="720" fill="#F5EFE2"/>
  <rect x="0" y="0" width="1280" height="330" fill="#7BC6DD" fill-opacity="0.17"/>
  <rect x="0" y="230" width="1280" height="100" fill="#F5EFE2" fill-opacity="0.75"/>
  <circle cx="240" cy="110" r="46" fill="#F5EFE2"/>
  <circle cx="240" cy="110" r="46" fill="#C05A32" fill-opacity="0.1"/>

  <!-- distant park band, fully green -->
  <ellipse cx="140" cy="320" rx="200" ry="46" fill="#A9C6A0" fill-opacity="0.7"/>
  <ellipse cx="560" cy="324" rx="240" ry="42" fill="#A9C6A0" fill-opacity="0.65"/>
  <ellipse cx="900" cy="322" rx="180" ry="40" fill="#2F6B4A" fill-opacity="0.45"/>

  <!-- ground -->
  <rect x="0" y="330" width="1280" height="390" fill="#E7DCC3"/>
  <path d="M0 640 Q420 520 900 400 L1010 400 Q560 540 220 700 L0 700 Z" fill="#CFC0A0"/>
  <path d="M0 640 Q420 520 900 400 L1010 400 Q560 540 220 700 L0 700 Z" fill="#F5EFE2" fill-opacity="0.35"/>
  <path d="M0 668 Q470 528 952 400" stroke="#22301F" stroke-opacity="0.1" stroke-width="2" fill="none"/>

  <!-- wadi bioswale: lush reed bed, standing water -->
  <path d="M700 720 Q860 660 1060 648 Q1180 642 1280 656 L1280 720 Z" fill="#A9C6A0" fill-opacity="0.6"/>
  <path d="M760 720 Q900 676 1090 666 Q1200 662 1280 672 L1280 720 Z" fill="#4E8FA8" fill-opacity="0.55"/>
  <g fill="#2F6B4A" fill-opacity="0.85">
    <circle cx="810" cy="682" r="12"/><circle cx="866" cy="670" r="10"/><circle cx="930" cy="666" r="13"/>
    <circle cx="1000" cy="660" r="10"/><circle cx="1070" cy="658" r="12"/><circle cx="1150" cy="662" r="10"/>
    <circle cx="1225" cy="666" r="12"/><circle cx="1275" cy="672" r="9"/>
  </g>
  <g stroke="#2F6B4A" stroke-opacity="0.8" stroke-width="3.5" stroke-linecap="round" fill="none">
    <path d="M860 692 v-34"/><path d="M905 688 v-30"/><path d="M1010 682 v-32"/>
    <path d="M1130 682 v-28"/><path d="M1200 686 v-30"/>
  </g>
  <ellipse cx="1050" cy="694" rx="90" ry="8" fill="#7BC6DD" fill-opacity="0.35"/>

  <!-- gateway pergola, right (unchanged), vine-wrapped -->
  <g fill="#C05A32">
    <rect x="960" y="120" width="300" height="26"/>
    <rect x="960" y="120" width="30" height="290"/>
    <rect x="1230" y="120" width="30" height="290"/>
    <rect x="1002" y="146" width="11" height="84"/><rect x="1026" y="146" width="11" height="106"/>
    <rect x="1050" y="146" width="11" height="74"/><rect x="1074" y="146" width="11" height="116"/>
    <rect x="1098" y="146" width="11" height="90"/><rect x="1122" y="146" width="11" height="68"/>
    <rect x="1146" y="146" width="11" height="102"/><rect x="1170" y="146" width="11" height="82"/>
    <rect x="1194" y="146" width="11" height="120"/><rect x="1218" y="146" width="11" height="94"/>
  </g>
  <rect x="960" y="120" width="300" height="8" fill="#22301F" fill-opacity="0.2"/>
  <path d="M985 430 L1280 430 L1280 470 L1010 470 Z" fill="#22301F" fill-opacity="0.14"/>
  <!-- vines draping the beam -->
  <path d="M990 410 Q1004 320 992 240 Q988 190 1010 150" stroke="#2F6B4A" stroke-width="5" fill="none" stroke-opacity="0.85"/>
  <path d="M1250 400 Q1238 320 1248 240" stroke="#2F6B4A" stroke-width="4" fill="none" stroke-opacity="0.7"/>
  <g fill="#7CC98F" fill-opacity="0.8">
    <circle cx="998" cy="360" r="8"/><circle cx="990" cy="300" r="7"/><circle cx="996" cy="240" r="7"/>
    <circle cx="1004" cy="182" r="6"/><circle cx="1246" cy="352" r="6"/><circle cx="1250" cy="290" r="6"/>
  </g>
  <g fill="#A9C6A0" fill-opacity="0.7">
    <circle cx="1040" cy="140" r="12"/><circle cx="1090" cy="134" r="10"/><circle cx="1160" cy="140" r="11"/>
  </g>

  <!-- five ghaf positions: YEAR 5 — broad interlocking canopies -->
  <!-- tree A -->
  <g>
    <path d="M150 470 L145 372 M147 408 L108 376 M148 396 L192 368" stroke="#22301F" stroke-width="8" fill="none" stroke-linecap="round"/>
    <ellipse cx="144" cy="332" rx="98" ry="56" fill="#2F6B4A"/>
    <ellipse cx="100" cy="314" rx="50" ry="32" fill="#A9C6A0" fill-opacity="0.75"/>
    <ellipse cx="192" cy="344" rx="44" ry="27" fill="#A9C6A0" fill-opacity="0.55"/>
    <ellipse cx="152" cy="482" rx="104" ry="16" fill="#22301F" fill-opacity="0.12"/>
  </g>
  <!-- tree B -->
  <g>
    <path d="M360 440 L354 348 M356 384 L320 354 M357 372 L398 346" stroke="#22301F" stroke-width="7" fill="none" stroke-linecap="round"/>
    <ellipse cx="355" cy="310" rx="88" ry="50" fill="#2F6B4A"/>
    <ellipse cx="396" cy="294" rx="46" ry="29" fill="#A9C6A0" fill-opacity="0.75"/>
    <ellipse cx="316" cy="322" rx="38" ry="24" fill="#A9C6A0" fill-opacity="0.55"/>
    <ellipse cx="362" cy="450" rx="94" ry="14" fill="#22301F" fill-opacity="0.12"/>
  </g>
  <!-- tree C -->
  <g>
    <path d="M560 420 L554 324 M556 362 L516 330 M557 350 L600 322" stroke="#22301F" stroke-width="8" fill="none" stroke-linecap="round"/>
    <ellipse cx="554" cy="284" rx="102" ry="58" fill="#2F6B4A"/>
    <ellipse cx="508" cy="266" rx="52" ry="33" fill="#A9C6A0" fill-opacity="0.75"/>
    <ellipse cx="604" cy="296" rx="46" ry="28" fill="#A9C6A0" fill-opacity="0.55"/>
    <ellipse cx="562" cy="432" rx="108" ry="16" fill="#22301F" fill-opacity="0.12"/>
  </g>
  <!-- tree D -->
  <g>
    <path d="M760 446 L754 356 M756 392 L720 362 M757 380 L796 354" stroke="#22301F" stroke-width="7" fill="none" stroke-linecap="round"/>
    <ellipse cx="755" cy="316" rx="90" ry="52" fill="#2F6B4A"/>
    <ellipse cx="796" cy="300" rx="46" ry="29" fill="#A9C6A0" fill-opacity="0.75"/>
    <ellipse cx="716" cy="328" rx="40" ry="25" fill="#A9C6A0" fill-opacity="0.55"/>
    <ellipse cx="764" cy="456" rx="96" ry="14" fill="#22301F" fill-opacity="0.12"/>
  </g>
  <!-- tree E -->
  <g>
    <path d="M918 400 L913 328 M915 356 L886 332 M916 348 L946 326" stroke="#22301F" stroke-width="6" fill="none" stroke-linecap="round"/>
    <ellipse cx="914" cy="296" rx="72" ry="42" fill="#2F6B4A"/>
    <ellipse cx="882" cy="284" rx="36" ry="23" fill="#A9C6A0" fill-opacity="0.75"/>
    <ellipse cx="920" cy="406" rx="76" ry="12" fill="#22301F" fill-opacity="0.12"/>
  </g>

  <!-- mature understory drifts -->
  <g fill="#2F6B4A" fill-opacity="0.75">
    <circle cx="250" cy="456" r="16"/><circle cx="284" cy="448" r="12"/><circle cx="470" cy="430" r="14"/>
    <circle cx="504" cy="438" r="11"/><circle cx="660" cy="432" r="15"/><circle cx="850" cy="420" r="12"/>
    <circle cx="200" cy="464" r="11"/><circle cx="222" cy="452" r="9"/>
  </g>
  <g fill="#7CC98F" fill-opacity="0.7">
    <circle cx="304" cy="444" r="7"/><circle cx="612" cy="424" r="7"/><circle cx="808" cy="426" r="6"/>
    <circle cx="440" cy="440" r="6"/><circle cx="702" cy="428" r="6"/><circle cx="176" cy="454" r="5"/>
  </g>

  <!-- dappled canopy shade over path -->
  <g fill="#22301F" fill-opacity="0.08">
    <ellipse cx="300" cy="580" rx="80" ry="20"/><ellipse cx="480" cy="530" rx="70" ry="18"/>
    <ellipse cx="640" cy="490" rx="76" ry="18"/><ellipse cx="140" cy="620" rx="70" ry="18"/>
    <ellipse cx="820" cy="452" rx="60" ry="14"/>
  </g>

  <!-- sparkle inlay -->
  <use href="#sp" transform="translate(360 620) scale(4.2)" fill="#C05A32"/>
  <use href="#sp" transform="translate(258 662) scale(1.5)" fill="#7CC98F"/>
  <use href="#sp" transform="translate(462 664) scale(1.3)" fill="#7BC6DD"/>

  <!-- a full room: walkers, runner, stroller pair -->
  <g fill="#22301F">
    <path d="M525 486 q7 -16 0 -30 q-3 -8 4 -10 a9 9 0 1 1 6 1 q8 3 6 14 l-2 26 l7 32 h-8 l-7 -28 l-5 28 h-8 Z"/>
    <path d="M562 490 q-5 -18 1 -32 q-2 -8 5 -9 a8 8 0 1 1 6 1 q7 4 5 15 l1 25 l8 28 h-8 l-8 -24 l-3 24 h-8 Z"/>
    <path d="M700 452 q9 -14 3 -26 q-3 -7 4 -9 a8 8 0 1 1 5 1 q7 3 6 12 l-3 20 l12 22 h-8 l-10 -17 l-9 19 h-8 Z"/>
    <path d="M1088 430 q6 -14 1 -26 q-3 -7 4 -9 a8 8 0 1 1 5 1 q7 3 5 13 l-1 22 l6 27 h-7 l-6 -23 l-4 23 h-7 Z"/>
    <path d="M240 560 q7 -15 1 -28 q-3 -7 4 -9 a8 8 0 1 1 5 1 q7 3 5 13 l-1 23 l6 29 h-7 l-6 -25 l-4 25 h-7 Z"/>
    <path d="M204 590 q4 -9 1 -16 q-2 -5 3 -6 a5.5 5.5 0 1 1 4 1 q4 2 3 9 l0 12 l5 15 h-6 l-4 -12 l-3 12 h-6 Z"/>
  </g>

  <!-- cool shaded stipple -->
  <g fill="#2F6B4A" fill-opacity="0.22">
    <circle cx="120" cy="560" r="3"/><circle cx="230" cy="600" r="2.5"/><circle cx="620" cy="560" r="3"/>
    <circle cx="690" cy="610" r="2.5"/><circle cx="540" cy="660" r="2.5"/><circle cx="80" cy="640" r="2.5"/>
  </g>
  <g fill="#C05A32" fill-opacity="0.16">
    <circle cx="180" cy="520" r="2.5"/><circle cx="430" cy="500" r="2"/><circle cx="720" cy="500" r="2.5"/>
    <circle cx="880" cy="480" r="2"/><circle cx="300" cy="560" r="2"/>
  </g>
</svg>
