<svg xmlns="http://www.w3.org/2000/svg" viewBox="0 0 1280 720" width="100%">
  <defs>
    <path id="sp" d="M0 -12 C1.6 -3.2 3.2 -1.6 12 0 C3.2 1.6 1.6 3.2 0 12 C-1.6 3.2 -3.2 1.6 -12 0 C-3.2 -1.6 -1.6 -3.2 0 -12 Z"/>
    <g id="ghaf">
      <path d="M0 0 L-4 -52 M-3 -34 L-22 -50 M-3 -30 L18 -48" stroke="#22301F" stroke-width="5" fill="none" stroke-linecap="round"/>
      <ellipse cx="-2" cy="-72" rx="52" ry="30" fill="#2F6B4A"/>
      <ellipse cx="-26" cy="-82" rx="28" ry="18" fill="#A9C6A0" fill-opacity="0.75"/>
      <ellipse cx="24" cy="-66" rx="24" ry="15" fill="#A9C6A0" fill-opacity="0.5"/>
    </g>
  </defs>

  <!-- high horizon, sky sliver -->
  <rect width="1280" height="720" fill="#F5EFE2"/>
  <rect x="0" y="0" width="1280" height="150" fill="#7BC6DD" fill-opacity="0.18"/>
  <rect x="0" y="96" width="1280" height="58" fill="#F5EFE2" fill-opacity="0.75"/>
  <!-- skyline haze -->
  <g fill="#22301F" fill-opacity="0.08">
    <rect x="60" y="96" width="46" height="42"/><rect x="130" y="108" width="60" height="30"/>
    <rect x="230" y="90" width="38" height="48"/><rect x="1120" y="102" width="70" height="36"/>
  </g>

  <!-- park ground tilted plane -->
  <path d="M0 138 H1280 V720 H0 Z" fill="#E7DCC3"/>
  <path d="M0 138 H1280 V210 H0 Z" fill="#A9C6A0" fill-opacity="0.35"/>

  <!-- wadi bioswale crossing beneath the loop -->
  <path d="M-20 330 Q240 280 460 310 Q700 344 900 290 Q1080 244 1300 270" fill="none" stroke="#A9C6A0" stroke-width="54" stroke-opacity="0.4" stroke-linecap="round"/>
  <path d="M-20 330 Q240 280 460 310 Q700 344 900 290 Q1080 244 1300 270" fill="none" stroke="#4E8FA8" stroke-width="20" stroke-opacity="0.55" stroke-linecap="round"/>

  <!-- the loop: sweeping from plaza (foreground SE) north, figure-eight hinted -->
  <path d="M1150 760 C1000 600 820 500 640 430 C480 368 360 330 280 260 C220 208 250 160 340 164 C450 170 520 230 640 250 C780 274 920 236 1010 200" fill="none" stroke="#CFC0A0" stroke-width="60" stroke-linecap="round"/>
  <path d="M1150 760 C1000 600 820 500 640 430 C480 368 360 330 280 260" fill="none" stroke="#F5EFE2" stroke-opacity="0.4" stroke-width="22" stroke-linecap="round"/>
  <path d="M1150 760 C1000 600 820 500 640 430 C480 368 360 330 280 260 C220 208 250 160 340 164" fill="none" stroke="#22301F" stroke-opacity="0.14" stroke-width="2.5" stroke-dasharray="8 12"/>

  <!-- entry plaza spread, foreground right -->
  <path d="M840 720 L1030 520 L1280 560 L1280 720 Z" fill="#F5EFE2"/>
  <path d="M840 720 L1030 520 L1280 560 L1280 720 Z" fill="#CFC0A0" fill-opacity="0.3"/>
  <g stroke="#22301F" stroke-opacity="0.1" stroke-width="2" fill="none">
    <path d="M912 646 L1280 700"/><path d="M974 580 L1280 622"/>
    <path d="M1080 530 L1000 720"/><path d="M1170 545 L1140 720"/>
  </g>
  <!-- sparkle inlay -->
  <use href="#sp" transform="translate(1120 626) scale(3.6)" fill="#C05A32"/>
  <use href="#sp" transform="translate(1040 668) scale(1.4)" fill="#7CC98F"/>
  <use href="#sp" transform="translate(1204 590) scale(1.2)" fill="#7BC6DD"/>

  <!-- gateway pergola, oblique: slatted roof plane + columns -->
  <g>
    <path d="M950 470 L1140 430 L1240 480 L1050 526 Z" fill="#C05A32" fill-opacity="0.3"/>
    <g fill="#C05A32">
      <path d="M958 468 L1148 428 L1156 432 L966 472 Z"/>
      <path d="M974 476 L1164 436 L1172 440 L982 480 Z"/>
      <path d="M990 484 L1180 444 L1188 448 L998 488 Z"/>
      <path d="M1006 492 L1196 452 L1204 456 L1014 496 Z"/>
      <path d="M1022 500 L1212 460 L1220 464 L1030 504 Z"/>
      <path d="M1038 508 L1228 468 L1236 472 L1046 512 Z"/>
    </g>
    <g fill="#C05A32">
      <rect x="962" y="470" width="12" height="92"/>
      <rect x="1140" y="432" width="12" height="82"/>
      <rect x="1230" y="478" width="12" height="88"/>
      <rect x="1052" y="522" width="12" height="102"/>
    </g>
    <!-- shade cast -->
    <path d="M980 566 L1170 522 L1258 570 L1070 628 Z" fill="#22301F" fill-opacity="0.12"/>
  </g>

  <!-- cafe terrace block beside plaza -->
  <path d="M790 560 L900 536 L940 560 L830 588 Z" fill="#C05A32" fill-opacity="0.85"/>
  <path d="M790 560 L830 588 L830 630 L790 604 Z" fill="#C05A32" fill-opacity="0.6"/>
  <path d="M830 588 L940 560 L940 600 L830 630 Z" fill="#F5EFE2"/>
  <g fill="none" stroke="#22301F" stroke-opacity="0.5" stroke-width="2">
    <circle cx="872" cy="606" r="7"/><circle cx="905" cy="596" r="7"/>
  </g>

  <!-- drop-off road at bottom-right corner -->
  <path d="M1280 700 L1180 720 L1280 720 Z" fill="#22301F" fill-opacity="0.2"/>

  <!-- ghaf trees along the loop, scaled for depth -->
  <use href="#ghaf" transform="translate(880 560) scale(1.5)"/>
  <use href="#ghaf" transform="translate(760 470) scale(1.2)"/>
  <use href="#ghaf" transform="translate(600 452) scale(1.05)"/>
  <use href="#ghaf" transform="translate(500 392) scale(0.9)"/>
  <use href="#ghaf" transform="translate(392 352) scale(0.78)"/>
  <use href="#ghaf" transform="translate(300 292) scale(0.62)"/>
  <use href="#ghaf" transform="translate(430 222) scale(0.55)"/>
  <use href="#ghaf" transform="translate(600 276) scale(0.6)"/>
  <use href="#ghaf" transform="translate(780 258) scale(0.5)"/>
  <use href="#ghaf" transform="translate(950 228) scale(0.45)"/>
  <use href="#ghaf" transform="translate(150 250) scale(0.5)"/>
  <use href="#ghaf" transform="translate(1230 430) scale(0.9)"/>
  <use href="#ghaf" transform="translate(700 640) scale(1.7)"/>

  <!-- planting stipple along swale and path -->
  <g fill="#2F6B4A" fill-opacity="0.4">
    <circle cx="330" cy="318" r="4"/><circle cx="360" cy="304" r="3"/><circle cx="540" cy="330" r="4"/>
    <circle cx="576" cy="342" r="3"/><circle cx="820" cy="310" r="4"/><circle cx="860" cy="296" r="3"/>
    <circle cx="1020" cy="272" r="3.5"/><circle cx="200" cy="300" r="3"/><circle cx="680" cy="380" r="3.5"/>
  </g>
  <g fill="#C05A32" fill-opacity="0.28">
    <circle cx="1090" cy="580" r="3"/><circle cx="980" cy="640" r="3"/><circle cx="900 " cy="680" r="2.5"/>
    <circle cx="760" cy="540" r="2.5"/><circle cx="640" cy="490" r="2.5"/>
  </g>

  <!-- tiny walkers on the loop -->
  <g fill="#22301F">
    <ellipse cx="1010" cy="600" rx="5" ry="10"/>
    <ellipse cx="880" cy="512" rx="4.5" ry="9"/>
    <ellipse cx="700" cy="452" rx="4" ry="8"/>
    <ellipse cx="520" cy="382" rx="3.5" ry="7"/>
    <ellipse cx="330" cy="286" rx="3" ry="6"/>
    <ellipse cx="640" cy="252" rx="3" ry="6"/>
  </g>

  <!-- warm light wash from the east -->
  <path d="M1280 0 L1280 720 L760 720 Z" fill="#F5EFE2" fill-opacity="0.18"/>
</svg>
